<?xml version="1.0" encoding="UTF-8"?>
<!DOCTYPE svg PUBLIC "-//W3C//DTD SVG 1.1//EN" "http://www.w3.org/Graphics/SVG/1.1/DTD/svg11.dtd">
<!-- Creator: CorelDRAW 2019 (64-Bit OEM Version) -->
<svg xmlns="http://www.w3.org/2000/svg" xml:space="preserve" width="105.115mm" height="110.935mm" version="1.1" style="shape-rendering:geometricPrecision; text-rendering:geometricPrecision; image-rendering:optimizeQuality; fill-rule:evenodd; clip-rule:evenodd"
viewBox="0 0 10511.46 11093.48"
 xmlns:xlink="http://www.w3.org/1999/xlink"
 xmlns:xodm="http://www.corel.com/coreldraw/odm/2003">
 <defs>
  <style type="text/css">
   <![CDATA[
    .str0 {stroke:black;stroke-width:35.28;stroke-linecap:square;stroke-miterlimit:22.9256}
    .fil0 {fill:none}
   ]]>
  </style>
 </defs>
 <g id="Layer_x0020_1">
  <metadata id="CorelCorpID_0Corel-Layer"/>
  <g id="_1574287865392">
   <polygon class="fil0 str0" points="44.09,17.64 17.64,44.09 17.64,70.55 17.64,97 17.64,123.46 17.64,149.91 17.64,176.37 17.64,202.82 17.64,229.28 17.64,255.73 17.64,282.19 17.64,308.64 17.64,335.1 17.64,361.55 17.64,388.01 17.64,414.46 17.64,440.92 17.64,467.37 17.64,493.83 17.64,520.28 17.64,546.74 17.64,573.19 17.64,599.65 17.64,626.1 17.64,652.56 17.64,679.01 17.64,705.47 17.64,731.92 17.64,758.38 17.64,784.83 17.64,811.29 17.64,837.74 17.64,864.2 17.64,890.65 17.64,917.11 17.64,943.56 17.64,970.02 17.64,996.47 17.64,1022.93 17.64,1049.38 17.64,1075.84 17.64,1102.29 17.64,1128.75 17.64,1155.2 17.64,1181.66 44.09,1208.11 70.55,1208.11 97,1208.11 123.46,1208.11 149.91,1208.11 176.37,1208.11 202.82,1208.11 229.28,1208.11 255.73,1208.11 282.19,1208.11 308.64,1208.11 335.1,1208.11 361.55,1208.11 388.01,1208.11 414.46,1208.11 440.92,1208.11 467.37,1208.11 493.83,1208.11 520.28,1208.11 546.74,1208.11 573.19,1208.11 599.65,1208.11 626.1,1234.57 626.1,1261.02 626.1,1287.48 626.1,1313.93 626.1,1340.39 626.1,1366.84 626.1,1393.3 626.1,1419.75 626.1,1446.21 626.1,1472.66 626.1,1499.12 626.1,1525.57 626.1,1552.03 626.1,1578.48 626.1,1604.94 626.1,1631.39 626.1,1657.85 626.1,1684.3 626.1,1710.76 626.1,1737.21 626.1,1763.67 626.1,1790.12 626.1,1816.58 626.1,1843.03 626.1,1869.49 626.1,1895.94 626.1,1922.4 626.1,1948.85 626.1,1975.31 626.1,2001.76 626.1,2028.22 626.1,2054.67 626.1,2081.13 626.1,2107.58 626.1,2134.04 626.1,2160.49 626.1,2186.95 626.1,2213.4 626.1,2239.86 626.1,2266.31 626.1,2292.77 626.1,2319.22 626.1,2345.68 626.1,2372.13 599.65,2398.59 573.19,2398.59 546.74,2398.59 520.28,2398.59 493.83,2398.59 467.37,2398.59 440.92,2398.59 414.46,2398.59 388.01,2398.59 361.55,2398.59 335.1,2398.59 308.64,2398.59 282.19,2398.59 255.73,2398.59 229.28,2398.59 202.82,2398.59 176.37,2398.59 149.91,2398.59 123.46,2398.59 97,2398.59 70.55,2398.59 44.09,2398.59 17.64,2425.04 17.64,2451.5 17.64,2477.95 17.64,2504.41 17.64,2530.87 17.64,2557.32 17.64,2583.78 17.64,2610.23 17.64,2636.69 17.64,2663.14 17.64,2689.6 17.64,2716.05 17.64,2742.51 17.64,2768.96 17.64,2795.42 17.64,2821.87 17.64,2848.33 17.64,2874.78 17.64,2901.24 17.64,2927.69 17.64,2954.15 17.64,2980.6 17.64,3007.06 17.64,3033.51 17.64,3059.97 17.64,3086.42 17.64,3112.88 17.64,3139.33 17.64,3165.79 17.64,3192.24 17.64,3218.7 17.64,3245.15 17.64,3271.61 17.64,3298.06 17.64,3324.52 17.64,3350.97 17.64,3377.43 17.64,3403.88 17.64,3430.34 17.64,3456.79 17.64,3483.25 17.64,3509.7 17.64,3536.16 17.64,3562.61 17.64,3589.07 17.64,3615.52 17.64,3641.98 17.64,3668.43 17.64,3694.89 17.64,3721.34 17.64,3747.8 17.64,3774.25 17.64,3800.71 17.64,3827.16 17.64,3853.62 17.64,3880.07 17.64,3906.53 17.64,3932.98 17.64,3959.44 17.64,3985.89 17.64,4012.35 17.64,4038.8 17.64,4065.26 17.64,4091.71 17.64,4118.17 17.64,4144.62 17.64,4171.08 17.64,4197.53 17.64,4223.99 17.64,4250.44 17.64,4276.9 17.64,4303.35 17.64,4329.81 17.64,4356.26 17.64,4382.72 17.64,4409.17 17.64,4435.63 17.64,4462.08 17.64,4488.54 17.64,4514.99 17.64,4541.45 17.64,4567.9 17.64,4594.36 17.64,4620.81 17.64,4647.27 17.64,4673.72 17.64,4700.18 17.64,4726.63 17.64,4753.09 17.64,4779.54 17.64,4806 17.64,4832.45 17.64,4858.91 17.64,4885.36 17.64,4911.82 17.64,4938.27 44.09,4964.73 70.55,4964.73 97,4964.73 123.46,4964.73 149.91,4964.73 176.37,4964.73 202.82,4964.73 229.28,4964.73 255.73,4964.73 282.19,4964.73 308.64,4964.73 335.1,4964.73 361.55,4964.73 388.01,4964.73 414.46,4964.73 440.92,4964.73 467.37,4964.73 493.83,4964.73 520.28,4964.73 546.74,4964.73 573.19,4964.73 599.65,4964.73 626.1,4991.18 626.1,5017.64 626.1,5044.09 626.1,5070.55 626.1,5097 626.1,5123.46 626.1,5149.91 626.1,5176.37 626.1,5202.82 626.1,5229.28 626.1,5255.73 626.1,5282.19 626.1,5308.64 626.1,5335.1 626.1,5361.55 626.1,5388.01 626.1,5414.46 626.1,5440.92 626.1,5467.37 626.1,5493.83 626.1,5520.28 626.1,5546.74 626.1,5573.19 626.1,5599.65 626.1,5626.1 626.1,5652.56 626.1,5679.01 626.1,5705.47 626.1,5731.92 626.1,5758.38 626.1,5784.83 626.1,5811.29 626.1,5837.74 626.1,5864.2 626.1,5890.65 626.1,5917.11 626.1,5943.56 626.1,5970.02 626.1,5996.47 626.1,6022.93 626.1,6049.38 626.1,6075.84 626.1,6102.29 599.65,6128.75 573.19,6128.75 546.74,6128.75 520.28,6128.75 493.83,6128.75 467.37,6128.75 440.92,6128.75 414.46,6128.75 388.01,6128.75 361.55,6128.75 335.1,6128.75 308.64,6128.75 282.19,6128.75 255.73,6128.75 229.28,6128.75 202.82,6128.75 176.37,6128.75 149.91,6128.75 123.46,6128.75 97,6128.75 70.55,6128.75 44.09,6128.75 17.64,6155.2 17.64,6181.66 17.64,6208.11 17.64,6234.57 17.64,6261.02 17.64,6287.48 17.64,6313.93 17.64,6340.39 17.64,6366.84 17.64,6393.3 17.64,6419.75 17.64,6446.21 17.64,6472.66 17.64,6499.12 17.64,6525.57 17.64,6552.03 17.64,6578.48 17.64,6604.94 17.64,6631.39 17.64,6657.85 17.64,6684.3 17.64,6710.76 17.64,6737.21 17.64,6763.67 17.64,6790.12 17.64,6816.58 17.64,6843.03 17.64,6869.49 17.64,6895.94 17.64,6922.4 17.64,6948.85 17.64,6975.31 17.64,7001.76 17.64,7028.22 17.64,7054.67 17.64,7081.13 17.64,7107.58 17.64,7134.04 17.64,7160.49 17.64,7186.95 17.64,7213.4 17.64,7239.86 17.64,7266.31 17.64,7292.77 17.64,7319.22 17.64,7345.68 17.64,7372.13 17.64,7398.59 17.64,7425.04 17.64,7451.5 17.64,7477.95 17.64,7504.41 17.64,7530.86 17.64,7557.32 17.64,7583.77 17.64,7610.23 17.64,7636.68 17.64,7663.14 17.64,7689.59 17.64,7716.05 17.64,7742.5 17.64,7768.96 17.64,7795.41 17.64,7821.87 17.64,7848.32 17.64,7874.78 17.64,7901.23 17.64,7927.69 17.64,7954.14 17.64,7980.6 17.64,8007.05 17.64,8033.51 17.64,8059.96 17.64,8086.42 17.64,8112.87 17.64,8139.33 17.64,8165.78 17.64,8192.24 17.64,8218.69 17.64,8245.15 17.64,8271.6 17.64,8298.06 17.64,8324.51 17.64,8350.97 17.64,8377.42 17.64,8403.88 17.64,8430.33 17.64,8456.79 17.64,8483.24 17.64,8509.7 17.64,8536.15 17.64,8562.61 17.64,8589.07 17.64,8615.52 17.64,8641.98 17.64,8668.43 44.09,8694.89 70.55,8694.89 97,8694.89 123.46,8694.89 149.91,8694.89 176.37,8694.89 202.82,8694.89 229.28,8694.89 255.73,8694.89 282.19,8694.89 308.64,8694.89 335.1,8694.89 361.55,8694.89 388.01,8694.89 414.46,8694.89 440.92,8694.89 467.37,8694.89 493.83,8694.89 520.28,8694.89 546.74,8694.89 573.19,8694.89 599.65,8694.89 626.1,8721.34 626.1,8747.8 626.1,8774.25 626.1,8800.71 626.1,8827.16 626.1,8853.62 626.1,8880.07 626.1,8906.53 626.1,8932.98 626.1,8959.44 626.1,8985.89 626.1,9012.35 626.1,9038.8 626.1,9065.26 626.1,9091.71 626.1,9118.17 626.1,9144.62 626.1,9171.08 626.1,9197.53 626.1,9223.99 626.1,9250.44 626.1,9276.9 626.1,9303.35 626.1,9329.81 626.1,9356.26 626.1,9382.72 626.1,9409.17 626.1,9435.63 626.1,9462.08 626.1,9488.54 626.1,9514.99 626.1,9541.45 626.1,9567.9 626.1,9594.36 626.1,9620.81 626.1,9647.27 626.1,9673.72 626.1,9700.18 626.1,9726.63 626.1,9753.09 626.1,9779.54 626.1,9806 626.1,9832.45 626.1,9858.91 599.65,9885.36 573.19,9885.36 546.74,9885.36 520.28,9885.36 493.83,9885.36 467.37,9885.36 440.92,9885.36 414.46,9885.36 388.01,9885.36 361.55,9885.36 335.1,9885.36 308.64,9885.36 282.19,9885.36 255.73,9885.36 229.28,9885.36 202.82,9885.36 176.37,9885.36 149.91,9885.36 123.46,9885.36 97,9885.36 70.55,9885.36 44.09,9885.36 17.64,9911.82 17.64,9938.27 17.64,9964.73 17.64,9991.18 17.64,10017.64 17.64,10044.09 17.64,10070.55 17.64,10097 17.64,10123.46 17.64,10149.91 17.64,10176.37 17.64,10202.82 17.64,10229.28 17.64,10255.73 17.64,10282.19 17.64,10308.64 17.64,10335.1 17.64,10361.55 17.64,10388.01 17.64,10414.46 17.64,10440.92 17.64,10467.37 17.64,10493.83 17.64,10520.28 17.64,10546.74 17.64,10573.19 17.64,10599.65 17.64,10626.1 17.64,10652.56 17.64,10679.01 17.64,10705.47 17.64,10731.92 17.64,10758.38 17.64,10784.83 17.64,10811.29 17.64,10837.74 17.64,10864.2 17.64,10890.65 17.64,10917.11 17.64,10943.56 17.64,10970.02 17.64,10996.47 17.64,11022.93 17.64,11049.38 44.09,11075.84 70.55,11075.84 97,11075.84 123.46,11075.84 149.91,11075.84 176.37,11075.84 202.82,11075.84 229.28,11075.84 255.73,11075.84 282.19,11075.84 308.64,11075.84 335.1,11075.84 361.55,11075.84 388.01,11075.84 414.46,11075.84 440.92,11075.84 467.37,11075.84 493.83,11075.84 520.28,11075.84 546.74,11075.84 573.19,11075.84 599.65,11075.84 626.1,11075.84 652.56,11075.84 679.01,11075.84 705.47,11075.84 731.92,11075.84 758.38,11075.84 784.83,11075.84 811.29,11075.84 837.74,11075.84 864.2,11075.84 890.65,11075.84 917.11,11075.84 943.56,11075.84 970.02,11075.84 996.47,11075.84 1022.93,11075.84 1049.38,11075.84 1075.84,11075.84 1102.29,11075.84 1128.75,11075.84 1155.2,11075.84 1181.66,11075.84 1208.11,11075.84 1234.57,11075.84 1261.02,11075.84 1287.48,11075.84 1313.93,11075.84 1340.39,11075.84 1366.84,11075.84 1393.3,11075.84 1419.75,11075.84 1446.21,11075.84 1472.66,11075.84 1499.12,11075.84 1525.57,11075.84 1552.03,11075.84 1578.48,11075.84 1604.94,11075.84 1631.39,11075.84 1657.85,11075.84 1684.3,11075.84 1710.76,11075.84 1737.21,11075.84 1763.67,11075.84 1790.12,11075.84 1816.58,11075.84 1843.03,11075.84 1869.49,11075.84 1895.94,11075.84 1922.4,11075.84 1948.85,11075.84 1975.31,11075.84 2001.76,11075.84 2028.22,11075.84 2054.67,11075.84 2081.13,11075.84 2107.58,11075.84 2134.04,11075.84 2160.49,11075.84 2186.95,11075.84 2213.4,11075.84 2239.86,11075.84 2266.31,11075.84 2292.77,11075.84 2319.22,11075.84 2345.68,11075.84 2372.13,11075.84 2398.59,11075.84 2425.04,11075.84 2451.5,11075.84 2477.95,11075.84 2504.41,11075.84 2530.86,11075.84 2557.32,11075.84 2583.77,11075.84 2610.23,11075.84 2636.68,11075.84 2663.14,11075.84 2689.59,11075.84 2716.05,11075.84 2742.5,11075.84 2768.96,11075.84 2795.41,11075.84 2821.87,11075.84 2848.32,11075.84 2874.78,11075.84 2901.23,11075.84 2927.69,11075.84 2954.14,11075.84 2980.6,11075.84 3007.05,11075.84 3033.51,11075.84 3059.96,11075.84 3086.42,11075.84 3112.87,11075.84 3139.33,11075.84 3165.78,11075.84 3192.24,11075.84 3218.69,11075.84 3245.15,11075.84 3271.6,11075.84 3298.06,11075.84 3324.51,11075.84 3350.97,11075.84 3377.42,11075.84 3403.88,11075.84 3430.33,11075.84 3456.79,11075.84 3483.24,11075.84 3509.7,11075.84 3536.15,11075.84 3562.61,11075.84 3589.06,11075.84 3615.52,11075.84 3641.97,11075.84 3668.43,11075.84 3694.88,11075.84 3721.34,11075.84 3747.79,11075.84 3774.25,11075.84 3800.7,11075.84 3827.16,11075.84 3853.61,11075.84 3880.07,11075.84 3906.52,11075.84 3932.98,11075.84 3959.43,11075.84 3985.89,11075.84 4012.34,11075.84 4038.8,11075.84 4065.25,11075.84 4091.71,11075.84 4118.16,11075.84 4144.62,11075.84 4171.07,11075.84 4197.53,11075.84 4223.98,11075.84 4250.44,11075.84 4276.89,11075.84 4303.35,11075.84 4329.8,11075.84 4356.26,11075.84 4382.71,11075.84 4409.17,11075.84 4435.62,11075.84 4462.08,11075.84 4488.53,11075.84 4514.99,11075.84 4541.44,11075.84 4567.9,11075.84 4594.35,11075.84 4620.81,11075.84 4647.26,11075.84 4673.72,11075.84 4700.17,11075.84 4726.63,11075.84 4753.08,11075.84 4779.54,11075.84 4805.99,11075.84 4832.45,11075.84 4858.9,11075.84 4885.36,11075.84 4911.81,11075.84 4938.27,11075.84 4964.72,11075.84 4991.18,11075.84 5017.63,11075.84 5044.09,11075.84 5070.54,11075.84 5097,11075.84 5123.45,11075.84 5149.91,11075.84 5176.36,11075.84 5202.82,11075.84 5229.27,11075.84 5255.73,11075.84 5282.18,11075.84 5308.64,11075.84 5335.09,11075.84 5361.55,11075.84 5388,11075.84 5414.46,11075.84 5440.91,11075.84 5467.37,11075.84 5493.82,11075.84 5520.28,11075.84 5546.73,11075.84 5573.19,11075.84 5599.64,11075.84 5626.1,11075.84 5652.55,11075.84 5679.01,11075.84 5705.46,11075.84 5731.92,11075.84 5758.37,11075.84 5784.83,11075.84 5811.28,11075.84 5837.74,11075.84 5864.19,11075.84 5890.65,11075.84 5917.1,11075.84 5943.56,11075.84 5970.01,11075.84 5996.47,11075.84 6022.92,11075.84 6049.38,11075.84 6075.83,11075.84 6102.29,11075.84 6128.74,11075.84 6155.2,11075.84 6181.65,11075.84 6208.11,11075.84 6234.56,11075.84 6261.02,11075.84 6287.47,11075.84 6313.93,11075.84 6340.38,11075.84 6366.84,11075.84 6393.29,11075.84 6419.75,11075.84 6446.2,11075.84 6472.66,11075.84 6499.11,11075.84 6525.57,11075.84 6552.02,11075.84 6578.48,11075.84 6604.93,11075.84 6631.39,11075.84 6657.84,11075.84 6684.3,11075.84 6710.75,11075.84 6737.21,11075.84 6763.66,11075.84 6790.12,11075.84 6816.57,11075.84 6843.03,11075.84 6869.48,11075.84 6895.94,11075.84 6922.39,11075.84 6948.85,11075.84 6975.3,11075.84 7001.76,11075.84 7028.21,11075.84 7054.67,11075.84 7081.12,11075.84 7107.58,11075.84 7134.03,11075.84 7160.49,11075.84 7186.94,11075.84 7213.4,11075.84 7239.85,11075.84 7266.31,11075.84 7292.76,11075.84 7319.22,11075.84 7345.67,11075.84 7372.13,11075.84 7398.58,11075.84 7425.04,11075.84 7451.49,11075.84 7477.95,11075.84 7504.4,11075.84 7530.86,11075.84 7557.31,11075.84 7583.77,11075.84 7610.22,11075.84 7636.68,11075.84 7663.13,11075.84 7689.59,11075.84 7716.04,11075.84 7742.5,11075.84 7768.95,11075.84 7795.41,11075.84 7821.86,11075.84 7848.32,11075.84 7874.77,11075.84 7901.23,11075.84 7927.68,11075.84 7954.14,11075.84 7980.59,11075.84 8007.05,11075.84 8033.5,11075.84 8059.96,11075.84 8086.41,11075.84 8112.87,11075.84 8139.32,11075.84 8165.78,11075.84 8192.23,11075.84 8218.69,11075.84 8245.14,11075.84 8271.6,11075.84 8298.05,11075.84 8324.51,11075.84 8350.96,11075.84 8377.42,11075.84 8403.87,11075.84 8430.33,11075.84 8456.78,11075.84 8483.24,11075.84 8509.69,11075.84 8536.15,11075.84 8562.6,11075.84 8589.06,11075.84 8615.51,11075.84 8641.97,11075.84 8668.42,11075.84 8694.88,11075.84 8721.33,11075.84 8747.79,11075.84 8774.24,11075.84 8800.7,11075.84 8827.15,11075.84 8853.61,11075.84 8880.06,11075.84 8906.52,11075.84 8932.97,11075.84 8959.43,11075.84 8985.88,11075.84 9012.34,11075.84 9038.79,11075.84 9065.25,11075.84 9091.7,11075.84 9118.16,11075.84 9144.61,11075.84 9171.07,11075.84 9197.52,11075.84 9223.98,11075.84 9250.43,11075.84 9276.89,11075.84 9303.34,11075.84 9329.8,11075.84 9356.25,11075.84 9382.71,11075.84 9409.16,11075.84 9435.62,11075.84 9462.07,11075.84 9488.53,11075.84 9514.98,11075.84 9541.44,11075.84 9567.89,11075.84 9594.35,11075.84 9620.8,11075.84 9647.26,11075.84 9673.71,11075.84 9700.17,11075.84 9726.62,11075.84 9753.08,11075.84 9779.53,11075.84 9805.99,11075.84 9832.44,11075.84 9858.9,11075.84 9885.35,11049.38 9885.35,11022.93 9885.35,10996.47 9885.35,10970.02 9885.35,10943.56 9885.35,10917.11 9885.35,10890.65 9885.35,10864.2 9885.35,10837.74 9885.35,10811.29 9885.35,10784.83 9885.35,10758.38 9885.35,10731.92 9885.35,10705.47 9885.35,10679.01 9885.35,10652.56 9885.35,10626.1 9885.35,10599.65 9885.35,10573.19 9885.35,10546.74 9885.35,10520.28 9885.35,10493.83 9885.35,10467.37 9885.35,10440.92 9885.35,10414.46 9885.35,10388.01 9885.35,10361.55 9885.35,10335.1 9885.35,10308.64 9885.35,10282.19 9885.35,10255.73 9885.35,10229.28 9885.35,10202.82 9885.35,10176.37 9885.35,10149.91 9885.35,10123.46 9885.35,10097 9885.35,10070.55 9885.35,10044.09 9885.35,10017.64 9885.35,9991.18 9885.35,9964.73 9885.35,9938.27 9885.35,9911.82 9911.81,9885.36 9938.26,9885.36 9964.72,9885.36 9991.17,9885.36 10017.63,9885.36 10044.08,9885.36 10070.54,9885.36 10096.99,9885.36 10123.45,9885.36 10149.9,9885.36 10176.36,9885.36 10202.81,9885.36 10229.27,9885.36 10255.72,9885.36 10282.18,9885.36 10308.63,9885.36 10335.09,9885.36 10361.54,9885.36 10388,9885.36 10414.45,9885.36 10440.91,9885.36 10467.36,9885.36 10493.82,9858.91 10493.82,9832.45 10493.82,9806 10493.82,9779.54 10493.82,9753.09 10493.82,9726.63 10493.82,9700.18 10493.82,9673.72 10493.82,9647.27 10493.82,9620.81 10493.82,9594.36 10493.82,9567.9 10493.82,9541.45 10493.82,9514.99 10493.82,9488.54 10493.82,9462.08 10493.82,9435.63 10493.82,9409.17 10493.82,9382.72 10493.82,9356.26 10493.82,9329.81 10493.82,9303.35 10493.82,9276.9 10493.82,9250.44 10493.82,9223.99 10493.82,9197.53 10493.82,9171.08 10493.82,9144.62 10493.82,9118.17 10493.82,9091.71 10493.82,9065.26 10493.82,9038.8 10493.82,9012.35 10493.82,8985.89 10493.82,8959.44 10493.82,8932.98 10493.82,8906.53 10493.82,8880.07 10493.82,8853.62 10493.82,8827.16 10493.82,8800.71 10493.82,8774.25 10493.82,8747.8 10493.82,8721.34 10467.36,8694.89 10440.91,8694.89 10414.45,8694.89 10388,8694.89 10361.54,8694.89 10335.09,8694.89 10308.63,8694.89 10282.18,8694.89 10255.72,8694.89 10229.27,8694.89 10202.81,8694.89 10176.36,8694.89 10149.9,8694.89 10123.45,8694.89 10096.99,8694.89 10070.54,8694.89 10044.08,8694.89 10017.63,8694.89 9991.17,8694.89 9964.72,8694.89 9938.26,8694.89 9911.81,8694.89 9885.35,8668.43 9885.35,8641.98 9885.35,8615.52 9885.35,8589.07 9885.35,8562.61 9885.35,8536.15 9885.35,8509.7 9885.35,8483.24 9885.35,8456.79 9885.35,8430.33 9885.35,8403.88 9885.35,8377.42 9885.35,8350.97 9885.35,8324.51 9885.35,8298.06 9885.35,8271.6 9885.35,8245.15 9885.35,8218.69 9885.35,8192.24 9885.35,8165.78 9885.35,8139.33 9885.35,8112.87 9885.35,8086.42 9885.35,8059.96 9885.35,8033.51 9885.35,8007.05 9885.35,7980.6 9885.35,7954.14 9885.35,7927.69 9885.35,7901.23 9885.35,7874.78 9885.35,7848.32 9885.35,7821.87 9885.35,7795.41 9885.35,7768.96 9885.35,7742.5 9885.35,7716.05 9885.35,7689.59 9885.35,7663.14 9885.35,7636.68 9885.35,7610.23 9885.35,7583.77 9885.35,7557.32 9885.35,7530.86 9885.35,7504.41 9885.35,7477.95 9885.35,7451.5 9885.35,7425.04 9885.35,7398.59 9885.35,7372.13 9885.35,7345.68 9885.35,7319.22 9885.35,7292.77 9885.35,7266.31 9885.35,7239.86 9885.35,7213.4 9885.35,7186.95 9885.35,7160.49 9885.35,7134.04 9885.35,7107.58 9885.35,7081.13 9885.35,7054.67 9885.35,7028.22 9885.35,7001.76 9885.35,6975.31 9885.35,6948.85 9885.35,6922.4 9885.35,6895.94 9885.35,6869.49 9885.35,6843.03 9885.35,6816.58 9885.35,6790.12 9885.35,6763.67 9885.35,6737.21 9885.35,6710.76 9885.35,6684.3 9885.35,6657.85 9885.35,6631.39 9885.35,6604.94 9885.35,6578.48 9885.35,6552.03 9885.35,6525.57 9885.35,6499.12 9885.35,6472.66 9885.35,6446.21 9885.35,6419.75 9885.35,6393.3 9885.35,6366.84 9885.35,6340.39 9885.35,6313.93 9885.35,6287.48 9885.35,6261.02 9885.35,6234.57 9885.35,6208.11 9885.35,6181.66 9885.35,6155.2 9911.81,6128.75 9938.26,6128.75 9964.72,6128.75 9991.17,6128.75 10017.63,6128.75 10044.08,6128.75 10070.54,6128.75 10096.99,6128.75 10123.45,6128.75 10149.9,6128.75 10176.36,6128.75 10202.81,6128.75 10229.27,6128.75 10255.72,6128.75 10282.18,6128.75 10308.63,6128.75 10335.09,6128.75 10361.54,6128.75 10388,6128.75 10414.45,6128.75 10440.91,6128.75 10467.36,6128.75 10493.82,6102.29 10493.82,6075.84 10493.82,6049.38 10493.82,6022.93 10493.82,5996.47 10493.82,5970.02 10493.82,5943.56 10493.82,5917.11 10493.82,5890.65 10493.82,5864.2 10493.82,5837.74 10493.82,5811.29 10493.82,5784.83 10493.82,5758.38 10493.82,5731.92 10493.82,5705.47 10493.82,5679.01 10493.82,5652.56 10493.82,5626.1 10493.82,5599.65 10493.82,5573.19 10493.82,5546.74 10493.82,5520.28 10493.82,5493.83 10493.82,5467.37 10493.82,5440.92 10493.82,5414.46 10493.82,5388.01 10493.82,5361.55 10493.82,5335.1 10493.82,5308.64 10493.82,5282.19 10493.82,5255.73 10493.82,5229.28 10493.82,5202.82 10493.82,5176.37 10493.82,5149.91 10493.82,5123.46 10493.82,5097 10493.82,5070.55 10493.82,5044.09 10493.82,5017.64 10493.82,4991.18 10467.36,4964.73 10440.91,4964.73 10414.45,4964.73 10388,4964.73 10361.54,4964.73 10335.09,4964.73 10308.63,4964.73 10282.18,4964.73 10255.72,4964.73 10229.27,4964.73 10202.81,4964.73 10176.36,4964.73 10149.9,4964.73 10123.45,4964.73 10096.99,4964.73 10070.54,4964.73 10044.08,4964.73 10017.63,4964.73 9991.17,4964.73 9964.72,4964.73 9938.26,4964.73 9911.81,4964.73 9885.35,4938.27 9885.35,4911.82 9885.35,4885.36 9885.35,4858.91 9885.35,4832.45 9885.35,4806 9885.35,4779.54 9885.35,4753.09 9885.35,4726.63 9885.35,4700.18 9885.35,4673.72 9885.35,4647.27 9885.35,4620.81 9885.35,4594.36 9885.35,4567.9 9885.35,4541.45 9885.35,4514.99 9885.35,4488.54 9885.35,4462.08 9885.35,4435.63 9885.35,4409.17 9885.35,4382.72 9885.35,4356.26 9885.35,4329.81 9885.35,4303.35 9885.35,4276.9 9885.35,4250.44 9885.35,4223.99 9885.35,4197.53 9885.35,4171.08 9885.35,4144.62 9885.35,4118.17 9885.35,4091.71 9885.35,4065.26 9885.35,4038.8 9885.35,4012.35 9885.35,3985.89 9885.35,3959.44 9885.35,3932.98 9885.35,3906.53 9885.35,3880.07 9885.35,3853.62 9885.35,3827.16 9885.35,3800.71 9885.35,3774.25 9885.35,3747.8 9885.35,3721.34 9885.35,3694.89 9885.35,3668.43 9885.35,3641.98 9885.35,3615.52 9885.35,3589.07 9885.35,3562.61 9885.35,3536.16 9885.35,3509.7 9885.35,3483.25 9885.35,3456.79 9885.35,3430.34 9885.35,3403.88 9885.35,3377.43 9885.35,3350.97 9885.35,3324.52 9885.35,3298.06 9885.35,3271.61 9885.35,3245.15 9885.35,3218.7 9885.35,3192.24 9885.35,3165.79 9885.35,3139.33 9885.35,3112.88 9885.35,3086.42 9885.35,3059.97 9885.35,3033.51 9885.35,3007.06 9885.35,2980.6 9885.35,2954.15 9885.35,2927.69 9885.35,2901.24 9885.35,2874.78 9885.35,2848.33 9885.35,2821.87 9885.35,2795.42 9885.35,2768.96 9885.35,2742.51 9885.35,2716.05 9885.35,2689.6 9885.35,2663.14 9885.35,2636.69 9885.35,2610.23 9885.35,2583.78 9885.35,2557.32 9885.35,2530.87 9885.35,2504.41 9885.35,2477.95 9885.35,2451.5 9885.35,2425.04 9911.81,2398.59 9938.26,2398.59 9964.72,2398.59 9991.17,2398.59 10017.63,2398.59 10044.08,2398.59 10070.54,2398.59 10096.99,2398.59 10123.45,2398.59 10149.9,2398.59 10176.36,2398.59 10202.81,2398.59 10229.27,2398.59 10255.72,2398.59 10282.18,2398.59 10308.63,2398.59 10335.09,2398.59 10361.54,2398.59 10388,2398.59 10414.45,2398.59 10440.91,2398.59 10467.36,2398.59 10493.82,2372.13 10493.82,2345.68 10493.82,2319.22 10493.82,2292.77 10493.82,2266.31 10493.82,2239.86 10493.82,2213.4 10493.82,2186.95 10493.82,2160.49 10493.82,2134.04 10493.82,2107.58 10493.82,2081.13 10493.82,2054.67 10493.82,2028.22 10493.82,2001.76 10493.82,1975.31 10493.82,1948.85 10493.82,1922.4 10493.82,1895.94 10493.82,1869.49 10493.82,1843.03 10493.82,1816.58 10493.82,1790.12 10493.82,1763.67 10493.82,1737.21 10493.82,1710.76 10493.82,1684.3 10493.82,1657.85 10493.82,1631.39 10493.82,1604.94 10493.82,1578.48 10493.82,1552.03 10493.82,1525.57 10493.82,1499.12 10493.82,1472.66 10493.82,1446.21 10493.82,1419.75 10493.82,1393.3 10493.82,1366.84 10493.82,1340.39 10493.82,1313.93 10493.82,1287.48 10493.82,1261.02 10493.82,1234.57 10467.36,1208.11 10440.91,1208.11 10414.45,1208.11 10388,1208.11 10361.54,1208.11 10335.09,1208.11 10308.63,1208.11 10282.18,1208.11 10255.72,1208.11 10229.27,1208.11 10202.81,1208.11 10176.36,1208.11 10149.9,1208.11 10123.45,1208.11 10096.99,1208.11 10070.54,1208.11 10044.08,1208.11 10017.63,1208.11 9991.17,1208.11 9964.72,1208.11 9938.26,1208.11 9911.81,1208.11 9885.35,1181.66 9885.35,1155.2 9885.35,1128.75 9885.35,1102.29 9885.35,1075.84 9885.35,1049.38 9885.35,1022.93 9885.35,996.47 9885.35,970.02 9885.35,943.56 9885.35,917.11 9885.35,890.65 9885.35,864.2 9885.35,837.74 9885.35,811.29 9885.35,784.83 9885.35,758.38 9885.35,731.92 9885.35,705.47 9885.35,679.01 9885.35,652.56 9885.35,626.1 9885.35,599.65 9885.35,573.19 9885.35,546.74 9885.35,520.28 9885.35,493.83 9885.35,467.37 9885.35,440.92 9885.35,414.46 9885.35,388.01 9885.35,361.55 9885.35,335.1 9885.35,308.64 9885.35,282.19 9885.35,255.73 9885.35,229.28 9885.35,202.82 9885.35,176.37 9885.35,149.91 9885.35,123.46 9885.35,97 9885.35,70.55 9885.35,44.09 9858.9,17.64 9832.44,17.64 9805.99,17.64 9779.53,17.64 9753.08,17.64 9726.62,17.64 9700.17,17.64 9673.71,17.64 9647.26,17.64 9620.8,17.64 9594.35,17.64 9567.89,17.64 9541.44,17.64 9514.98,17.64 9488.53,17.64 9462.07,17.64 9435.62,17.64 9409.16,17.64 9382.71,17.64 9356.25,17.64 9329.8,17.64 9303.34,17.64 9276.89,17.64 9250.43,17.64 9223.98,17.64 9197.52,17.64 9171.07,17.64 9144.61,17.64 9118.16,17.64 9091.7,17.64 9065.25,17.64 9038.79,17.64 9012.34,17.64 8985.88,17.64 8959.43,17.64 8932.97,17.64 8906.52,17.64 8880.06,17.64 8853.61,17.64 8827.15,17.64 8800.7,17.64 8774.24,17.64 8747.79,17.64 8721.33,17.64 8694.88,17.64 8668.42,17.64 8641.97,17.64 8615.51,17.64 8589.06,17.64 8562.6,17.64 8536.15,17.64 8509.69,17.64 8483.24,17.64 8456.78,17.64 8430.33,17.64 8403.87,17.64 8377.42,17.64 8350.96,17.64 8324.51,17.64 8298.05,17.64 8271.6,17.64 8245.14,17.64 8218.69,17.64 8192.23,17.64 8165.78,17.64 8139.32,17.64 8112.87,17.64 8086.41,17.64 8059.96,17.64 8033.5,17.64 8007.05,17.64 7980.59,17.64 7954.14,17.64 7927.68,17.64 7901.23,17.64 7874.77,17.64 7848.32,17.64 7821.86,17.64 7795.41,17.64 7768.95,17.64 7742.5,17.64 7716.04,17.64 7689.59,17.64 7663.13,17.64 7636.68,17.64 7610.22,17.64 7583.77,17.64 7557.31,17.64 7530.86,17.64 7504.4,17.64 7477.95,17.64 7451.49,17.64 7425.04,17.64 7398.58,17.64 7372.13,17.64 7345.67,17.64 7319.22,17.64 7292.76,17.64 7266.31,17.64 7239.85,17.64 7213.4,17.64 7186.94,17.64 7160.49,17.64 7134.03,17.64 7107.58,17.64 7081.12,17.64 7054.67,17.64 7028.21,17.64 7001.76,17.64 6975.3,17.64 6948.85,17.64 6922.39,17.64 6895.94,17.64 6869.48,17.64 6843.03,17.64 6816.57,17.64 6790.12,17.64 6763.66,17.64 6737.21,17.64 6710.75,17.64 6684.3,17.64 6657.84,17.64 6631.39,17.64 6604.93,17.64 6578.48,17.64 6552.02,17.64 6525.57,17.64 6499.11,17.64 6472.66,17.64 6446.2,17.64 6419.75,17.64 6393.29,17.64 6366.84,17.64 6340.38,17.64 6313.93,17.64 6287.47,17.64 6261.02,17.64 6234.56,17.64 6208.11,17.64 6181.65,17.64 6155.2,17.64 6128.74,17.64 6102.29,17.64 6075.83,17.64 6049.38,17.64 6022.92,17.64 5996.47,17.64 5970.01,17.64 5943.56,17.64 5917.1,17.64 5890.65,17.64 5864.19,17.64 5837.74,17.64 5811.28,17.64 5784.83,17.64 5758.37,17.64 5731.92,17.64 5705.46,17.64 5679.01,17.64 5652.55,17.64 5626.1,17.64 5599.64,17.64 5573.19,17.64 5546.73,17.64 5520.28,17.64 5493.82,17.64 5467.37,17.64 5440.91,17.64 5414.46,17.64 5388,17.64 5361.55,17.64 5335.09,17.64 5308.64,17.64 5282.18,17.64 5255.73,17.64 5229.27,17.64 5202.82,17.64 5176.36,17.64 5149.91,17.64 5123.45,17.64 5097,17.64 5070.54,17.64 5044.09,17.64 5017.63,17.64 4991.18,17.64 4964.72,17.64 4938.27,17.64 4911.81,17.64 4885.36,17.64 4858.9,17.64 4832.45,17.64 4805.99,17.64 4779.54,17.64 4753.08,17.64 4726.63,17.64 4700.17,17.64 4673.72,17.64 4647.26,17.64 4620.81,17.64 4594.35,17.64 4567.9,17.64 4541.44,17.64 4514.99,17.64 4488.53,17.64 4462.08,17.64 4435.62,17.64 4409.17,17.64 4382.71,17.64 4356.26,17.64 4329.8,17.64 4303.35,17.64 4276.89,17.64 4250.44,17.64 4223.98,17.64 4197.53,17.64 4171.07,17.64 4144.62,17.64 4118.16,17.64 4091.71,17.64 4065.25,17.64 4038.8,17.64 4012.34,17.64 3985.89,17.64 3959.43,17.64 3932.98,17.64 3906.52,17.64 3880.07,17.64 3853.61,17.64 3827.16,17.64 3800.7,17.64 3774.25,17.64 3747.79,17.64 3721.34,17.64 3694.88,17.64 3668.43,17.64 3641.97,17.64 3615.52,17.64 3589.06,17.64 3562.61,17.64 3536.15,17.64 3509.7,17.64 3483.24,17.64 3456.79,17.64 3430.33,17.64 3403.88,17.64 3377.42,17.64 3350.97,17.64 3324.51,17.64 3298.06,17.64 3271.6,17.64 3245.15,17.64 3218.69,17.64 3192.24,17.64 3165.78,17.64 3139.33,17.64 3112.87,17.64 3086.42,17.64 3059.96,17.64 3033.51,17.64 3007.05,17.64 2980.6,17.64 2954.14,17.64 2927.69,17.64 2901.23,17.64 2874.78,17.64 2848.32,17.64 2821.87,17.64 2795.41,17.64 2768.96,17.64 2742.5,17.64 2716.05,17.64 2689.59,17.64 2663.14,17.64 2636.68,17.64 2610.23,17.64 2583.77,17.64 2557.32,17.64 2530.86,17.64 2504.41,17.64 2477.95,17.64 2451.5,17.64 2425.04,17.64 2398.59,17.64 2372.13,17.64 2345.68,17.64 2319.22,17.64 2292.77,17.64 2266.31,17.64 2239.86,17.64 2213.4,17.64 2186.95,17.64 2160.49,17.64 2134.04,17.64 2107.58,17.64 2081.13,17.64 2054.67,17.64 2028.22,17.64 2001.76,17.64 1975.31,17.64 1948.85,17.64 1922.4,17.64 1895.94,17.64 1869.49,17.64 1843.03,17.64 1816.58,17.64 1790.12,17.64 1763.67,17.64 1737.21,17.64 1710.76,17.64 1684.3,17.64 1657.85,17.64 1631.39,17.64 1604.94,17.64 1578.48,17.64 1552.03,17.64 1525.57,17.64 1499.12,17.64 1472.66,17.64 1446.21,17.64 1419.75,17.64 1393.3,17.64 1366.84,17.64 1340.39,17.64 1313.93,17.64 1287.48,17.64 1261.02,17.64 1234.57,17.64 1208.11,17.64 1181.66,17.64 1155.2,17.64 1128.75,17.64 1102.29,17.64 1075.84,17.64 1049.38,17.64 1022.93,17.64 996.47,17.64 970.02,17.64 943.56,17.64 917.11,17.64 890.65,17.64 864.2,17.64 837.74,17.64 811.29,17.64 784.83,17.64 758.38,17.64 731.92,17.64 705.47,17.64 679.01,17.64 652.56,17.64 626.1,17.64 599.65,17.64 573.19,17.64 546.74,17.64 520.28,17.64 493.83,17.64 467.37,17.64 440.92,17.64 414.46,17.64 388.01,17.64 361.55,17.64 335.1,17.64 308.64,17.64 282.19,17.64 255.73,17.64 229.28,17.64 202.82,17.64 176.37,17.64 149.91,17.64 123.46,17.64 97,17.64 70.55,17.64 "/>
   <polygon class="fil0 str0" points="1234.57,626.1 1208.11,652.56 1208.11,679.01 1208.11,705.47 1208.11,731.92 1208.11,758.38 1208.11,784.83 1208.11,811.29 1208.11,837.74 1208.11,864.2 1208.11,890.65 1208.11,917.11 1208.11,943.56 1208.11,970.02 1208.11,996.47 1208.11,1022.93 1208.11,1049.38 1208.11,1075.84 1208.11,1102.29 1208.11,1128.75 1208.11,1155.2 1208.11,1181.66 1234.57,1208.11 1261.02,1208.11 1287.48,1208.11 1313.93,1208.11 1340.39,1208.11 1366.84,1208.11 1393.3,1208.11 1419.75,1208.11 1446.21,1208.11 1472.66,1208.11 1499.12,1208.11 1525.57,1208.11 1552.03,1208.11 1578.48,1208.11 1604.94,1208.11 1631.39,1208.11 1657.85,1208.11 1684.3,1208.11 1710.76,1208.11 1737.21,1208.11 1763.67,1208.11 1790.12,1208.11 1816.58,1208.11 1843.03,1208.11 1869.49,1208.11 1895.94,1208.11 1922.4,1208.11 1948.85,1208.11 1975.31,1208.11 2001.76,1208.11 2028.22,1208.11 2054.67,1208.11 2081.13,1208.11 2107.58,1208.11 2134.04,1208.11 2160.49,1208.11 2186.95,1208.11 2213.4,1208.11 2239.86,1208.11 2266.31,1208.11 2292.77,1208.11 2319.22,1208.11 2345.68,1208.11 2372.13,1208.11 2398.59,1181.66 2398.59,1155.2 2398.59,1128.75 2398.59,1102.29 2398.59,1075.84 2398.59,1049.38 2398.59,1022.93 2398.59,996.47 2398.59,970.02 2398.59,943.56 2398.59,917.11 2398.59,890.65 2398.59,864.2 2398.59,837.74 2398.59,811.29 2398.59,784.83 2398.59,758.38 2398.59,731.92 2398.59,705.47 2398.59,679.01 2398.59,652.56 2372.13,626.1 2345.68,626.1 2319.22,626.1 2292.77,626.1 2266.31,626.1 2239.86,626.1 2213.4,626.1 2186.95,626.1 2160.49,626.1 2134.04,626.1 2107.58,626.1 2081.13,626.1 2054.67,626.1 2028.22,626.1 2001.76,626.1 1975.31,626.1 1948.85,626.1 1922.4,626.1 1895.94,626.1 1869.49,626.1 1843.03,626.1 1816.58,626.1 1790.12,626.1 1763.67,626.1 1737.21,626.1 1710.76,626.1 1684.3,626.1 1657.85,626.1 1631.39,626.1 1604.94,626.1 1578.48,626.1 1552.03,626.1 1525.57,626.1 1499.12,626.1 1472.66,626.1 1446.21,626.1 1419.75,626.1 1393.3,626.1 1366.84,626.1 1340.39,626.1 1313.93,626.1 1287.48,626.1 1261.02,626.1 "/>
   <polygon class="fil0 str0" points="4382.71,626.1 4356.26,652.56 4356.26,679.01 4356.26,705.47 4356.26,731.92 4356.26,758.38 4356.26,784.83 4356.26,811.29 4356.26,837.74 4356.26,864.2 4356.26,890.65 4356.26,917.11 4356.26,943.56 4356.26,970.02 4356.26,996.47 4356.26,1022.93 4356.26,1049.38 4356.26,1075.84 4356.26,1102.29 4356.26,1128.75 4356.26,1155.2 4356.26,1181.66 4382.71,1208.11 4409.17,1208.11 4435.62,1208.11 4462.08,1208.11 4488.53,1208.11 4514.99,1208.11 4541.44,1208.11 4567.9,1208.11 4594.35,1208.11 4620.81,1208.11 4647.26,1208.11 4673.72,1208.11 4700.17,1208.11 4726.63,1208.11 4753.08,1208.11 4779.54,1208.11 4805.99,1208.11 4832.45,1208.11 4858.9,1208.11 4885.36,1208.11 4911.81,1208.11 4938.27,1208.11 4964.72,1208.11 4991.18,1208.11 5017.63,1208.11 5044.09,1208.11 5070.54,1208.11 5097,1208.11 5123.45,1208.11 5149.91,1208.11 5176.36,1208.11 5202.82,1208.11 5229.27,1208.11 5255.73,1208.11 5282.18,1208.11 5308.64,1208.11 5335.09,1208.11 5361.55,1208.11 5388,1208.11 5414.46,1208.11 5440.91,1208.11 5467.37,1208.11 5493.82,1208.11 5520.28,1208.11 5546.73,1181.66 5546.73,1155.2 5546.73,1128.75 5546.73,1102.29 5546.73,1075.84 5546.73,1049.38 5546.73,1022.93 5546.73,996.47 5546.73,970.02 5546.73,943.56 5546.73,917.11 5546.73,890.65 5546.73,864.2 5546.73,837.74 5546.73,811.29 5546.73,784.83 5546.73,758.38 5546.73,731.92 5546.73,705.47 5546.73,679.01 5546.73,652.56 5520.28,626.1 5493.82,626.1 5467.37,626.1 5440.91,626.1 5414.46,626.1 5388,626.1 5361.55,626.1 5335.09,626.1 5308.64,626.1 5282.18,626.1 5255.73,626.1 5229.27,626.1 5202.82,626.1 5176.36,626.1 5149.91,626.1 5123.45,626.1 5097,626.1 5070.54,626.1 5044.09,626.1 5017.63,626.1 4991.18,626.1 4964.72,626.1 4938.27,626.1 4911.81,626.1 4885.36,626.1 4858.9,626.1 4832.45,626.1 4805.99,626.1 4779.54,626.1 4753.08,626.1 4726.63,626.1 4700.17,626.1 4673.72,626.1 4647.26,626.1 4620.81,626.1 4594.35,626.1 4567.9,626.1 4541.44,626.1 4514.99,626.1 4488.53,626.1 4462.08,626.1 4435.62,626.1 4409.17,626.1 "/>
   <polygon class="fil0 str0" points="7557.31,626.1 7530.86,652.56 7530.86,679.01 7530.86,705.47 7530.86,731.92 7530.86,758.38 7530.86,784.83 7530.86,811.29 7530.86,837.74 7530.86,864.2 7530.86,890.65 7530.86,917.11 7530.86,943.56 7530.86,970.02 7530.86,996.47 7530.86,1022.93 7530.86,1049.38 7530.86,1075.84 7530.86,1102.29 7530.86,1128.75 7530.86,1155.2 7530.86,1181.66 7557.31,1208.11 7583.77,1208.11 7610.22,1208.11 7636.68,1208.11 7663.13,1208.11 7689.59,1208.11 7716.04,1208.11 7742.5,1208.11 7768.95,1208.11 7795.41,1208.11 7821.86,1208.11 7848.32,1208.11 7874.77,1208.11 7901.23,1208.11 7927.68,1208.11 7954.14,1208.11 7980.59,1208.11 8007.05,1208.11 8033.5,1208.11 8059.96,1208.11 8086.41,1208.11 8112.87,1208.11 8139.32,1208.11 8165.78,1208.11 8192.23,1208.11 8218.69,1208.11 8245.14,1208.11 8271.6,1208.11 8298.05,1208.11 8324.51,1208.11 8350.96,1208.11 8377.42,1208.11 8403.87,1208.11 8430.33,1208.11 8456.78,1208.11 8483.24,1208.11 8509.69,1208.11 8536.15,1208.11 8562.6,1208.11 8589.06,1208.11 8615.51,1208.11 8641.97,1208.11 8668.42,1208.11 8694.88,1208.11 8721.33,1181.66 8721.33,1155.2 8721.33,1128.75 8721.33,1102.29 8721.33,1075.84 8721.33,1049.38 8721.33,1022.93 8721.33,996.47 8721.33,970.02 8721.33,943.56 8721.33,917.11 8721.33,890.65 8721.33,864.2 8721.33,837.74 8721.33,811.29 8721.33,784.83 8721.33,758.38 8721.33,731.92 8721.33,705.47 8721.33,679.01 8721.33,652.56 8694.88,626.1 8668.42,626.1 8641.97,626.1 8615.51,626.1 8589.06,626.1 8562.6,626.1 8536.15,626.1 8509.69,626.1 8483.24,626.1 8456.78,626.1 8430.33,626.1 8403.87,626.1 8377.42,626.1 8350.96,626.1 8324.51,626.1 8298.05,626.1 8271.6,626.1 8245.14,626.1 8218.69,626.1 8192.23,626.1 8165.78,626.1 8139.32,626.1 8112.87,626.1 8086.41,626.1 8059.96,626.1 8033.5,626.1 8007.05,626.1 7980.59,626.1 7954.14,626.1 7927.68,626.1 7901.23,626.1 7874.77,626.1 7848.32,626.1 7821.86,626.1 7795.41,626.1 7768.95,626.1 7742.5,626.1 7716.04,626.1 7689.59,626.1 7663.13,626.1 7636.68,626.1 7610.22,626.1 7583.77,626.1 "/>
  </g>
 </g>
</svg>
