<?xml version="1.0" encoding="UTF-8"?>
<!DOCTYPE svg PUBLIC "-//W3C//DTD SVG 1.1//EN" "http://www.w3.org/Graphics/SVG/1.1/DTD/svg11.dtd">
<!-- Creator: CorelDRAW 2019 (64-Bit OEM Version) -->
<svg xmlns="http://www.w3.org/2000/svg" xml:space="preserve" width="105.115mm" height="110.935mm" version="1.1" style="shape-rendering:geometricPrecision; text-rendering:geometricPrecision; image-rendering:optimizeQuality; fill-rule:evenodd; clip-rule:evenodd"
viewBox="0 0 9729.35 10268.07"
 xmlns:xlink="http://www.w3.org/1999/xlink"
 xmlns:xodm="http://www.corel.com/coreldraw/odm/2003">
 <defs>
  <style type="text/css">
   <![CDATA[
    .str0 {stroke:black;stroke-width:32.65;stroke-linecap:square;stroke-miterlimit:22.9256}
    .fil0 {fill:none}
   ]]>
  </style>
 </defs>
 <g id="Layer_x0020_1">
  <metadata id="CorelCorpID_0Corel-Layer"/>
  <polygon class="fil0 str0" points="40.81,16.33 16.33,40.81 16.33,65.3 16.33,89.78 16.33,114.27 16.33,138.76 16.33,163.25 16.33,187.73 16.33,212.22 16.33,236.7 16.33,261.19 16.33,285.68 16.33,310.17 16.33,334.65 16.33,359.14 16.33,383.62 16.33,408.11 16.33,432.6 16.33,457.09 16.33,481.57 16.33,506.06 16.33,530.54 16.33,555.03 16.33,579.51 16.33,604.01 16.33,628.49 16.33,652.98 16.33,677.46 16.33,701.95 16.33,726.43 16.33,750.93 16.33,775.41 16.33,799.9 16.33,824.38 16.33,848.87 16.33,873.35 16.33,897.85 16.33,922.33 16.33,946.82 16.33,971.3 16.33,995.79 16.33,1020.27 16.33,1044.76 16.33,1069.25 16.33,1093.74 40.81,1118.22 65.3,1118.22 89.78,1118.22 114.27,1118.22 138.76,1118.22 163.25,1118.22 187.73,1118.22 212.22,1118.22 236.7,1118.22 261.19,1118.22 285.68,1118.22 310.17,1118.22 334.65,1118.22 359.14,1118.22 383.62,1118.22 408.11,1118.22 432.6,1118.22 457.09,1118.22 481.57,1118.22 506.06,1118.22 530.54,1118.22 555.03,1118.22 579.51,1142.71 579.51,1167.19 579.51,1191.68 579.51,1216.17 579.51,1240.66 579.51,1265.14 579.51,1289.63 579.51,1314.11 579.51,1338.6 579.51,1363.09 579.51,1387.58 579.51,1412.06 579.51,1436.55 579.51,1461.03 579.51,1485.52 579.51,1510.01 579.51,1534.5 579.51,1558.98 579.51,1583.47 579.51,1607.95 579.51,1632.44 579.51,1656.93 579.51,1681.42 579.51,1705.9 579.51,1730.39 579.51,1754.87 579.51,1779.36 579.51,1803.85 579.51,1828.34 579.51,1852.82 579.51,1877.31 579.51,1901.79 579.51,1926.28 579.51,1950.76 579.51,1975.26 579.51,1999.74 579.51,2024.23 579.51,2048.71 579.51,2073.2 579.51,2097.68 579.51,2122.18 579.51,2146.66 579.51,2171.15 579.51,2195.63 555.03,2220.12 530.54,2220.12 506.06,2220.12 481.57,2220.12 457.09,2220.12 432.6,2220.12 408.11,2220.12 383.62,2220.12 359.14,2220.12 334.65,2220.12 310.17,2220.12 285.68,2220.12 261.19,2220.12 236.7,2220.12 212.22,2220.12 187.73,2220.12 163.25,2220.12 138.76,2220.12 114.27,2220.12 89.78,2220.12 65.3,2220.12 40.81,2220.12 16.33,2244.6 16.33,2269.1 16.33,2293.58 16.33,2318.07 16.33,2342.56 16.33,2367.04 16.33,2391.53 16.33,2416.01 16.33,2440.51 16.33,2464.99 16.33,2489.48 16.33,2513.96 16.33,2538.45 16.33,2562.93 16.33,2587.43 16.33,2611.91 16.33,2636.4 16.33,2660.88 16.33,2685.37 16.33,2709.85 16.33,2734.35 16.33,2758.83 16.33,2783.32 16.33,2807.8 16.33,2832.29 16.33,2856.77 16.33,2881.27 16.33,2905.75 16.33,2930.24 16.33,2954.72 16.33,2979.21 16.33,3003.69 16.33,3028.18 16.33,3052.67 16.33,3077.16 16.33,3101.64 16.33,3126.13 16.33,3150.61 16.33,3175.1 16.33,3199.59 16.33,3224.08 16.33,3248.56 16.33,3273.05 16.33,3297.53 16.33,3322.02 16.33,3346.51 16.33,3371 16.33,3395.48 16.33,3419.97 16.33,3444.45 16.33,3468.94 16.33,3493.43 16.33,3517.92 16.33,3542.4 16.33,3566.89 16.33,3591.37 16.33,3615.86 16.33,3640.35 16.33,3664.84 16.33,3689.32 16.33,3713.81 16.33,3738.29 16.33,3762.78 16.33,3787.26 16.33,3811.76 16.33,3836.24 16.33,3860.73 16.33,3885.21 16.33,3909.7 16.33,3934.18 16.33,3958.68 16.33,3983.16 16.33,4007.65 16.33,4032.13 16.33,4056.62 16.33,4081.1 16.33,4105.6 16.33,4130.08 16.33,4154.57 16.33,4179.05 16.33,4203.54 16.33,4228.02 16.33,4252.51 16.33,4277 40.81,4301.49 65.3,4301.49 89.78,4301.49 114.27,4301.49 138.76,4301.49 163.25,4301.49 187.73,4301.49 212.22,4301.49 236.7,4301.49 261.19,4301.49 285.68,4301.49 310.17,4301.49 334.65,4301.49 359.14,4301.49 383.62,4301.49 408.11,4301.49 432.6,4301.49 457.09,4301.49 481.57,4301.49 506.06,4301.49 530.54,4301.49 555.03,4301.49 579.51,4325.97 579.51,4350.46 579.51,4374.94 579.51,4399.43 579.51,4423.92 579.51,4448.41 579.51,4472.89 579.51,4497.38 579.51,4521.86 579.51,4546.35 579.51,4570.84 579.51,4595.33 579.51,4619.81 579.51,4644.3 579.51,4668.78 579.51,4693.27 579.51,4717.76 579.51,4742.25 579.51,4766.73 579.51,4791.22 579.51,4815.7 579.51,4840.19 579.51,4864.68 579.51,4889.17 579.51,4913.65 579.51,4938.14 579.51,4962.62 579.51,4987.11 579.51,5011.6 579.51,5036.09 579.51,5060.57 579.51,5085.06 579.51,5109.54 579.51,5134.03 579.51,5158.51 579.51,5183.01 579.51,5207.49 579.51,5231.98 579.51,5256.46 579.51,5280.95 579.51,5305.43 579.51,5329.93 579.51,5354.41 579.51,5378.9 555.03,5403.38 530.54,5403.38 506.06,5403.38 481.57,5403.38 457.09,5403.38 432.6,5403.38 408.11,5403.38 383.62,5403.38 359.14,5403.38 334.65,5403.38 310.17,5403.38 285.68,5403.38 261.19,5403.38 236.7,5403.38 212.22,5403.38 187.73,5403.38 163.25,5403.38 138.76,5403.38 114.27,5403.38 89.78,5403.38 65.3,5403.38 40.81,5403.38 16.33,5427.87 16.33,5452.35 16.33,5476.85 16.33,5501.33 16.33,5525.82 16.33,5550.3 16.33,5574.79 16.33,5599.27 16.33,5623.76 16.33,5648.25 16.33,5672.74 16.33,5697.22 16.33,5721.71 16.33,5746.19 16.33,5770.68 16.33,5795.17 16.33,5819.66 16.33,5844.14 16.33,5868.63 16.33,5893.11 16.33,5917.6 16.33,5942.09 16.33,5966.58 16.33,5991.06 16.33,6015.55 16.33,6040.03 16.33,6064.52 16.33,6089.01 16.33,6113.5 16.33,6137.98 16.33,6162.47 16.33,6186.95 16.33,6211.44 16.33,6235.93 16.33,6260.42 16.33,6284.9 16.33,6309.39 16.33,6333.87 16.33,6358.36 16.33,6382.85 16.33,6407.34 16.33,6431.82 16.33,6456.31 16.33,6480.79 16.33,6505.28 16.33,6529.76 16.33,6554.26 16.33,6578.74 16.33,6603.23 16.33,6627.71 16.33,6652.2 16.33,6676.68 16.33,6701.18 16.33,6725.66 16.33,6750.15 16.33,6774.63 16.33,6799.12 16.33,6823.6 16.33,6848.1 16.33,6872.58 16.33,6897.07 16.33,6921.55 16.33,6946.04 16.33,6970.52 16.33,6995.01 16.33,7019.5 16.33,7043.99 16.33,7068.47 16.33,7092.96 16.33,7117.44 16.33,7141.93 16.33,7166.42 16.33,7190.91 16.33,7215.39 16.33,7239.88 16.33,7264.36 16.33,7288.85 16.33,7313.34 16.33,7337.83 16.33,7362.31 16.33,7386.8 16.33,7411.28 16.33,7435.77 16.33,7460.26 16.33,7484.75 40.81,7509.23 65.3,7509.23 89.78,7509.23 114.27,7509.23 138.76,7509.23 163.25,7509.23 187.73,7509.23 212.22,7509.23 236.7,7509.23 261.19,7509.23 285.68,7509.23 310.17,7509.23 334.65,7509.23 359.14,7509.23 383.62,7509.23 408.11,7509.23 432.6,7509.23 457.09,7509.23 481.57,7509.23 506.06,7509.23 530.54,7509.23 555.03,7509.23 579.51,7533.72 579.51,7558.2 579.51,7582.69 579.51,7607.18 579.51,7631.67 579.51,7656.15 579.51,7680.64 579.51,7705.12 579.51,7729.61 579.51,7754.1 579.51,7778.59 579.51,7803.07 579.51,7827.56 579.51,7852.04 579.51,7876.53 579.51,7901.01 579.51,7925.51 579.51,7950 579.51,7974.48 579.51,7998.97 579.51,8023.45 579.51,8047.94 579.51,8072.43 579.51,8096.92 579.51,8121.4 579.51,8145.89 579.51,8170.37 579.51,8194.86 579.51,8219.35 579.51,8243.84 579.51,8268.32 579.51,8292.81 579.51,8317.29 579.51,8341.78 579.51,8366.26 579.51,8390.76 579.51,8415.24 579.51,8439.73 579.51,8464.21 579.51,8488.7 579.51,8513.18 579.51,8537.68 579.51,8562.16 579.51,8586.65 555.03,8611.13 530.54,8611.13 506.06,8611.13 481.57,8611.13 457.09,8611.13 432.6,8611.13 408.11,8611.13 383.62,8611.13 359.14,8611.13 334.65,8611.13 310.17,8611.13 285.68,8611.13 261.19,8611.13 236.7,8611.13 212.22,8611.13 187.73,8611.13 163.25,8611.13 138.76,8611.13 114.27,8611.13 89.78,8611.13 65.3,8611.13 40.81,8611.13 16.33,8635.62 16.33,8660.1 16.33,8684.6 16.33,8709.08 16.33,8733.57 16.33,8758.05 16.33,8782.54 16.33,8807.02 16.33,8831.51 16.33,8856 16.33,8880.49 16.33,8904.97 16.33,8929.46 16.33,8953.94 16.33,8978.43 16.33,9002.92 16.33,9027.41 16.33,9051.89 16.33,9076.38 16.33,9100.86 16.33,9125.35 16.33,9149.84 16.33,9174.33 16.33,9198.81 16.33,9223.3 16.33,9247.78 16.33,9272.27 16.33,9296.76 16.33,9321.25 16.33,9345.73 16.33,9370.22 16.33,9394.7 16.33,9419.19 16.33,9443.68 16.33,9468.17 16.33,9492.65 16.33,9517.14 16.33,9541.62 16.33,9566.11 16.33,9590.6 16.33,9615.09 16.33,9639.57 16.33,9664.06 40.81,9688.54 65.3,9688.54 89.78,9688.54 114.27,9688.54 138.76,9688.54 163.25,9688.54 187.73,9688.54 212.22,9688.54 236.7,9688.54 261.19,9688.54 285.68,9688.54 310.17,9688.54 334.65,9688.54 359.14,9688.54 383.62,9688.54 408.11,9688.54 432.6,9688.54 457.09,9688.54 481.57,9688.54 506.06,9688.54 530.54,9688.54 555.03,9688.54 579.51,9688.54 604.01,9688.54 628.49,9688.54 652.98,9688.54 677.46,9688.54 701.95,9688.54 726.43,9688.54 750.93,9688.54 775.41,9688.54 799.9,9688.54 824.38,9688.54 848.87,9688.54 873.35,9688.54 897.85,9688.54 922.33,9688.54 946.82,9688.54 971.3,9688.54 995.79,9688.54 1020.27,9688.54 1044.76,9688.54 1069.25,9688.54 1093.74,9688.54 1118.22,9713.03 1118.22,9737.51 1118.22,9762.01 1118.22,9786.49 1118.22,9810.98 1118.22,9835.46 1118.22,9859.95 1118.22,9884.43 1118.22,9908.93 1118.22,9933.41 1118.22,9957.9 1118.22,9982.38 1118.22,10006.87 1118.22,10031.35 1118.22,10055.85 1118.22,10080.33 1118.22,10104.82 1118.22,10129.3 1118.22,10153.79 1118.22,10178.27 1118.22,10202.76 1118.22,10227.25 1142.71,10251.74 1167.19,10251.74 1191.68,10251.74 1216.17,10251.74 1240.66,10251.74 1265.14,10251.74 1289.63,10251.74 1314.11,10251.74 1338.6,10251.74 1363.09,10251.74 1387.58,10251.74 1412.06,10251.74 1436.55,10251.74 1461.03,10251.74 1485.52,10251.74 1510.01,10251.74 1534.5,10251.74 1558.98,10251.74 1583.47,10251.74 1607.95,10251.74 1632.44,10251.74 1656.93,10251.74 1681.42,10251.74 1705.9,10251.74 1730.39,10251.74 1754.87,10251.74 1779.36,10251.74 1803.85,10251.74 1828.34,10251.74 1852.82,10251.74 1877.31,10251.74 1901.79,10251.74 1926.28,10251.74 1950.76,10251.74 1975.26,10251.74 1999.74,10251.74 2024.23,10251.74 2048.71,10251.74 2073.2,10251.74 2097.68,10251.74 2122.18,10251.74 2146.66,10251.74 2171.15,10251.74 2195.63,10251.74 2220.12,10227.25 2220.12,10202.76 2220.12,10178.27 2220.12,10153.79 2220.12,10129.3 2220.12,10104.82 2220.12,10080.33 2220.12,10055.85 2220.12,10031.35 2220.12,10006.87 2220.12,9982.38 2220.12,9957.9 2220.12,9933.41 2220.12,9908.93 2220.12,9884.43 2220.12,9859.95 2220.12,9835.46 2220.12,9810.98 2220.12,9786.49 2220.12,9762.01 2220.12,9737.51 2220.12,9713.03 2244.6,9688.54 2269.1,9688.54 2293.58,9688.54 2318.07,9688.54 2342.55,9688.54 2367.04,9688.54 2391.52,9688.54 2416.01,9688.54 2440.5,9688.54 2464.99,9688.54 2489.47,9688.54 2513.96,9688.54 2538.44,9688.54 2562.93,9688.54 2587.42,9688.54 2611.91,9688.54 2636.39,9688.54 2660.88,9688.54 2685.36,9688.54 2709.85,9688.54 2734.34,9688.54 2758.83,9688.54 2783.31,9688.54 2807.8,9688.54 2832.28,9688.54 2856.77,9688.54 2881.26,9688.54 2905.75,9688.54 2930.23,9688.54 2954.72,9688.54 2979.2,9688.54 3003.69,9688.54 3028.18,9688.54 3052.67,9688.54 3077.15,9688.54 3101.64,9688.54 3126.12,9688.54 3150.61,9688.54 3175.1,9688.54 3199.59,9688.54 3224.07,9688.54 3248.56,9688.54 3273.04,9688.54 3297.53,9688.54 3322.01,9688.54 3346.51,9688.54 3370.99,9688.54 3395.48,9688.54 3419.96,9688.54 3444.45,9688.54 3468.93,9688.54 3493.43,9688.54 3517.91,9688.54 3542.4,9688.54 3566.88,9688.54 3591.37,9688.54 3615.85,9688.54 3640.35,9688.54 3664.83,9688.54 3689.32,9688.54 3713.8,9688.54 3738.29,9688.54 3762.77,9688.54 3787.26,9688.54 3811.75,9688.54 3836.24,9688.54 3860.72,9688.54 3885.21,9688.54 3909.69,9688.54 3934.18,9688.54 3958.67,9688.54 3983.16,9688.54 4007.64,9688.54 4032.13,9688.54 4056.61,9688.54 4081.1,9688.54 4105.59,9713.03 4105.59,9737.51 4105.59,9762.01 4105.59,9786.49 4105.59,9810.98 4105.59,9835.46 4105.59,9859.95 4105.59,9884.43 4105.59,9908.93 4105.59,9933.41 4105.59,9957.9 4105.59,9982.38 4105.59,10006.87 4105.59,10031.35 4105.59,10055.85 4105.59,10080.33 4105.59,10104.82 4105.59,10129.3 4105.59,10153.79 4105.59,10178.27 4105.59,10202.76 4105.59,10227.25 4130.08,10251.74 4154.56,10251.74 4179.05,10251.74 4203.53,10251.74 4228.02,10251.74 4252.51,10251.74 4277,10251.74 4301.48,10251.74 4325.97,10251.74 4350.45,10251.74 4374.94,10251.74 4399.43,10251.74 4423.92,10251.74 4448.4,10251.74 4472.89,10251.74 4497.37,10251.74 4521.86,10251.74 4546.35,10251.74 4570.84,10251.74 4595.32,10251.74 4619.81,10251.74 4644.29,10251.74 4668.78,10251.74 4693.26,10251.74 4717.76,10251.74 4742.24,10251.74 4766.73,10251.74 4791.21,10251.74 4815.7,10251.74 4840.18,10251.74 4864.68,10251.74 4889.16,10251.74 4913.65,10251.74 4938.13,10251.74 4962.62,10251.74 4987.1,10251.74 5011.6,10251.74 5036.08,10251.74 5060.57,10251.74 5085.05,10251.74 5109.54,10251.74 5134.02,10251.74 5158.51,10251.74 5183,10251.74 5207.49,10227.25 5207.49,10202.76 5207.49,10178.27 5207.49,10153.79 5207.49,10129.3 5207.49,10104.82 5207.49,10080.33 5207.49,10055.85 5207.49,10031.35 5207.49,10006.87 5207.49,9982.38 5207.49,9957.9 5207.49,9933.41 5207.49,9908.93 5207.49,9884.43 5207.49,9859.95 5207.49,9835.46 5207.49,9810.98 5207.49,9786.49 5207.49,9762.01 5207.49,9737.51 5207.49,9713.03 5231.97,9688.54 5256.46,9688.54 5280.94,9688.54 5305.43,9688.54 5329.92,9688.54 5354.41,9688.54 5378.89,9688.54 5403.38,9688.54 5427.86,9688.54 5452.35,9688.54 5476.84,9688.54 5501.33,9688.54 5525.81,9688.54 5550.3,9688.54 5574.78,9688.54 5599.27,9688.54 5623.76,9688.54 5648.25,9688.54 5672.73,9688.54 5697.22,9688.54 5721.7,9688.54 5746.19,9688.54 5770.68,9688.54 5795.17,9688.54 5819.65,9688.54 5844.14,9688.54 5868.62,9688.54 5893.11,9688.54 5917.59,9688.54 5942.09,9688.54 5966.57,9688.54 5991.06,9688.54 6015.54,9688.54 6040.03,9688.54 6064.51,9688.54 6089.01,9688.54 6113.49,9688.54 6137.98,9688.54 6162.46,9688.54 6186.95,9688.54 6211.43,9688.54 6235.93,9688.54 6260.41,9688.54 6284.9,9688.54 6309.38,9688.54 6333.87,9688.54 6358.35,9688.54 6382.85,9688.54 6407.33,9688.54 6431.82,9688.54 6456.3,9688.54 6480.79,9688.54 6505.27,9688.54 6529.76,9688.54 6554.25,9688.54 6578.74,9688.54 6603.22,9688.54 6627.71,9688.54 6652.19,9688.54 6676.68,9688.54 6701.17,9688.54 6725.66,9688.54 6750.14,9688.54 6774.63,9688.54 6799.11,9688.54 6823.6,9688.54 6848.09,9688.54 6872.58,9688.54 6897.06,9688.54 6921.55,9688.54 6946.03,9688.54 6970.52,9688.54 6995.01,9688.54 7019.5,9688.54 7043.98,9688.54 7068.47,9688.54 7092.95,9688.54 7117.44,9713.03 7117.44,9737.51 7117.44,9762.01 7117.44,9786.49 7117.44,9810.98 7117.44,9835.46 7117.44,9859.95 7117.44,9884.43 7117.44,9908.93 7117.44,9933.41 7117.44,9957.9 7117.44,9982.38 7117.44,10006.87 7117.44,10031.35 7117.44,10055.85 7117.44,10080.33 7117.44,10104.82 7117.44,10129.3 7117.44,10153.79 7117.44,10178.27 7117.44,10202.76 7117.44,10227.25 7141.93,10251.74 7166.42,10251.74 7190.9,10251.74 7215.39,10251.74 7239.87,10251.74 7264.36,10251.74 7288.84,10251.74 7313.34,10251.74 7337.82,10251.74 7362.31,10251.74 7386.79,10251.74 7411.28,10251.74 7435.76,10251.74 7460.26,10251.74 7484.74,10251.74 7509.23,10251.74 7533.71,10251.74 7558.2,10251.74 7582.68,10251.74 7607.18,10251.74 7631.66,10251.74 7656.15,10251.74 7680.63,10251.74 7705.12,10251.74 7729.6,10251.74 7754.1,10251.74 7778.58,10251.74 7803.07,10251.74 7827.55,10251.74 7852.04,10251.74 7876.52,10251.74 7901.01,10251.74 7925.5,10251.74 7949.99,10251.74 7974.47,10251.74 7998.96,10251.74 8023.44,10251.74 8047.93,10251.74 8072.42,10251.74 8096.91,10251.74 8121.39,10251.74 8145.88,10251.74 8170.36,10251.74 8194.85,10227.25 8194.85,10202.76 8194.85,10178.27 8194.85,10153.79 8194.85,10129.3 8194.85,10104.82 8194.85,10080.33 8194.85,10055.85 8194.85,10031.35 8194.85,10006.87 8194.85,9982.38 8194.85,9957.9 8194.85,9933.41 8194.85,9908.93 8194.85,9884.43 8194.85,9859.95 8194.85,9835.46 8194.85,9810.98 8194.85,9786.49 8194.85,9762.01 8194.85,9737.51 8194.85,9713.03 8219.34,9688.54 8243.83,9688.54 8268.31,9688.54 8292.8,9688.54 8317.28,9688.54 8341.77,9688.54 8366.26,9688.54 8390.75,9688.54 8415.23,9688.54 8439.72,9688.54 8464.2,9688.54 8488.69,9688.54 8513.18,9688.54 8537.67,9688.54 8562.15,9688.54 8586.64,9688.54 8611.12,9688.54 8635.61,9688.54 8660.09,9688.54 8684.59,9688.54 8709.07,9688.54 8733.56,9688.54 8758.04,9688.54 8782.53,9688.54 8807.01,9688.54 8831.51,9688.54 8855.99,9688.54 8880.48,9688.54 8904.96,9688.54 8929.45,9688.54 8953.93,9688.54 8978.43,9688.54 9002.91,9688.54 9027.4,9688.54 9051.88,9688.54 9076.37,9688.54 9100.85,9688.54 9125.35,9688.54 9149.83,9664.06 9149.83,9639.57 9149.83,9615.09 9149.83,9590.6 9149.83,9566.11 9149.83,9541.62 9149.83,9517.14 9149.83,9492.65 9149.83,9468.17 9149.83,9443.68 9149.83,9419.19 9149.83,9394.7 9149.83,9370.22 9149.83,9345.73 9149.83,9321.25 9149.83,9296.76 9149.83,9272.27 9149.83,9247.78 9149.83,9223.3 9149.83,9198.81 9149.83,9174.33 9149.83,9149.84 9149.83,9125.35 9149.83,9100.86 9149.83,9076.38 9149.83,9051.89 9149.83,9027.41 9149.83,9002.92 9149.83,8978.43 9149.83,8953.94 9149.83,8929.46 9149.83,8904.97 9149.83,8880.49 9149.83,8856 9149.83,8831.51 9149.83,8807.02 9149.83,8782.54 9149.83,8758.05 9149.83,8733.57 9149.83,8709.08 9149.83,8684.6 9149.83,8660.1 9149.83,8635.62 9174.32,8611.13 9198.8,8611.13 9223.29,8611.13 9247.77,8611.13 9272.26,8611.13 9296.75,8611.13 9321.24,8611.13 9345.72,8611.13 9370.21,8611.13 9394.69,8611.13 9419.18,8611.13 9443.67,8611.13 9468.16,8611.13 9492.64,8611.13 9517.13,8611.13 9541.61,8611.13 9566.1,8611.13 9590.59,8611.13 9615.08,8611.13 9639.56,8611.13 9664.05,8611.13 9688.53,8611.13 9713.02,8586.65 9713.02,8562.16 9713.02,8537.68 9713.02,8513.18 9713.02,8488.7 9713.02,8464.21 9713.02,8439.73 9713.02,8415.24 9713.02,8390.76 9713.02,8366.26 9713.02,8341.78 9713.02,8317.29 9713.02,8292.81 9713.02,8268.32 9713.02,8243.84 9713.02,8219.35 9713.02,8194.86 9713.02,8170.37 9713.02,8145.89 9713.02,8121.4 9713.02,8096.92 9713.02,8072.43 9713.02,8047.94 9713.02,8023.45 9713.02,7998.97 9713.02,7974.48 9713.02,7950 9713.02,7925.51 9713.02,7901.01 9713.02,7876.53 9713.02,7852.04 9713.02,7827.56 9713.02,7803.07 9713.02,7778.59 9713.02,7754.1 9713.02,7729.61 9713.02,7705.12 9713.02,7680.64 9713.02,7656.15 9713.02,7631.67 9713.02,7607.18 9713.02,7582.69 9713.02,7558.2 9713.02,7533.72 9688.53,7509.23 9664.05,7509.23 9639.56,7509.23 9615.08,7509.23 9590.59,7509.23 9566.1,7509.23 9541.61,7509.23 9517.13,7509.23 9492.64,7509.23 9468.16,7509.23 9443.67,7509.23 9419.18,7509.23 9394.69,7509.23 9370.21,7509.23 9345.72,7509.23 9321.24,7509.23 9296.75,7509.23 9272.26,7509.23 9247.77,7509.23 9223.29,7509.23 9198.8,7509.23 9174.32,7509.23 9149.83,7484.75 9149.83,7460.26 9149.83,7435.77 9149.83,7411.28 9149.83,7386.8 9149.83,7362.31 9149.83,7337.83 9149.83,7313.34 9149.83,7288.85 9149.83,7264.36 9149.83,7239.88 9149.83,7215.39 9149.83,7190.91 9149.83,7166.42 9149.83,7141.93 9149.83,7117.44 9149.83,7092.96 9149.83,7068.47 9149.83,7043.99 9149.83,7019.5 9149.83,6995.01 9149.83,6970.52 9149.83,6946.04 9149.83,6921.55 9149.83,6897.07 9149.83,6872.58 9149.83,6848.1 9149.83,6823.6 9149.83,6799.12 9149.83,6774.63 9149.83,6750.15 9149.83,6725.66 9149.83,6701.18 9149.83,6676.68 9149.83,6652.2 9149.83,6627.71 9149.83,6603.23 9149.83,6578.74 9149.83,6554.26 9149.83,6529.76 9149.83,6505.28 9149.83,6480.79 9149.83,6456.31 9149.83,6431.82 9149.83,6407.34 9149.83,6382.85 9149.83,6358.36 9149.83,6333.87 9149.83,6309.39 9149.83,6284.9 9149.83,6260.42 9149.83,6235.93 9149.83,6211.44 9149.83,6186.95 9149.83,6162.47 9149.83,6137.98 9149.83,6113.5 9149.83,6089.01 9149.83,6064.52 9149.83,6040.03 9149.83,6015.55 9149.83,5991.06 9149.83,5966.58 9149.83,5942.09 9149.83,5917.6 9149.83,5893.11 9149.83,5868.63 9149.83,5844.14 9149.83,5819.66 9149.83,5795.17 9149.83,5770.68 9149.83,5746.19 9149.83,5721.71 9149.83,5697.22 9149.83,5672.74 9149.83,5648.25 9149.83,5623.76 9149.83,5599.27 9149.83,5574.79 9149.83,5550.3 9149.83,5525.82 9149.83,5501.33 9149.83,5476.85 9149.83,5452.35 9149.83,5427.87 9174.32,5403.38 9198.8,5403.38 9223.29,5403.38 9247.77,5403.38 9272.26,5403.38 9296.75,5403.38 9321.24,5403.38 9345.72,5403.38 9370.21,5403.38 9394.69,5403.38 9419.18,5403.38 9443.67,5403.38 9468.16,5403.38 9492.64,5403.38 9517.13,5403.38 9541.61,5403.38 9566.1,5403.38 9590.59,5403.38 9615.08,5403.38 9639.56,5403.38 9664.05,5403.38 9688.53,5403.38 9713.02,5378.9 9713.02,5354.41 9713.02,5329.93 9713.02,5305.43 9713.02,5280.95 9713.02,5256.46 9713.02,5231.98 9713.02,5207.49 9713.02,5183.01 9713.02,5158.51 9713.02,5134.03 9713.02,5109.54 9713.02,5085.06 9713.02,5060.57 9713.02,5036.09 9713.02,5011.6 9713.02,4987.11 9713.02,4962.62 9713.02,4938.14 9713.02,4913.65 9713.02,4889.17 9713.02,4864.68 9713.02,4840.19 9713.02,4815.7 9713.02,4791.22 9713.02,4766.73 9713.02,4742.25 9713.02,4717.76 9713.02,4693.27 9713.02,4668.78 9713.02,4644.3 9713.02,4619.81 9713.02,4595.33 9713.02,4570.84 9713.02,4546.35 9713.02,4521.86 9713.02,4497.38 9713.02,4472.89 9713.02,4448.41 9713.02,4423.92 9713.02,4399.43 9713.02,4374.94 9713.02,4350.46 9713.02,4325.97 9688.53,4301.49 9664.05,4301.49 9639.56,4301.49 9615.08,4301.49 9590.59,4301.49 9566.1,4301.49 9541.61,4301.49 9517.13,4301.49 9492.64,4301.49 9468.16,4301.49 9443.67,4301.49 9419.18,4301.49 9394.69,4301.49 9370.21,4301.49 9345.72,4301.49 9321.24,4301.49 9296.75,4301.49 9272.26,4301.49 9247.77,4301.49 9223.29,4301.49 9198.8,4301.49 9174.32,4301.49 9149.83,4277 9149.83,4252.51 9149.83,4228.02 9149.83,4203.54 9149.83,4179.05 9149.83,4154.57 9149.83,4130.08 9149.83,4105.6 9149.83,4081.1 9149.83,4056.62 9149.83,4032.13 9149.83,4007.65 9149.83,3983.16 9149.83,3958.68 9149.83,3934.18 9149.83,3909.7 9149.83,3885.21 9149.83,3860.73 9149.83,3836.24 9149.83,3811.76 9149.83,3787.26 9149.83,3762.78 9149.83,3738.29 9149.83,3713.81 9149.83,3689.32 9149.83,3664.84 9149.83,3640.35 9149.83,3615.86 9149.83,3591.37 9149.83,3566.89 9149.83,3542.4 9149.83,3517.92 9149.83,3493.43 9149.83,3468.94 9149.83,3444.45 9149.83,3419.97 9149.83,3395.48 9149.83,3371 9149.83,3346.51 9149.83,3322.02 9149.83,3297.53 9149.83,3273.05 9149.83,3248.56 9149.83,3224.08 9149.83,3199.59 9149.83,3175.1 9149.83,3150.61 9149.83,3126.13 9149.83,3101.64 9149.83,3077.16 9149.83,3052.67 9149.83,3028.18 9149.83,3003.69 9149.83,2979.21 9149.83,2954.72 9149.83,2930.24 9149.83,2905.75 9149.83,2881.27 9149.83,2856.77 9149.83,2832.29 9149.83,2807.8 9149.83,2783.32 9149.83,2758.83 9149.83,2734.35 9149.83,2709.85 9149.83,2685.37 9149.83,2660.88 9149.83,2636.4 9149.83,2611.91 9149.83,2587.43 9149.83,2562.93 9149.83,2538.45 9149.83,2513.96 9149.83,2489.48 9149.83,2464.99 9149.83,2440.51 9149.83,2416.01 9149.83,2391.53 9149.83,2367.04 9149.83,2342.56 9149.83,2318.07 9149.83,2293.58 9149.83,2269.1 9149.83,2244.6 9174.32,2220.12 9198.8,2220.12 9223.29,2220.12 9247.77,2220.12 9272.26,2220.12 9296.75,2220.12 9321.24,2220.12 9345.72,2220.12 9370.21,2220.12 9394.69,2220.12 9419.18,2220.12 9443.67,2220.12 9468.16,2220.12 9492.64,2220.12 9517.13,2220.12 9541.61,2220.12 9566.1,2220.12 9590.59,2220.12 9615.08,2220.12 9639.56,2220.12 9664.05,2220.12 9688.53,2220.12 9713.02,2195.63 9713.02,2171.15 9713.02,2146.66 9713.02,2122.18 9713.02,2097.68 9713.02,2073.2 9713.02,2048.71 9713.02,2024.23 9713.02,1999.74 9713.02,1975.26 9713.02,1950.76 9713.02,1926.28 9713.02,1901.79 9713.02,1877.31 9713.02,1852.82 9713.02,1828.34 9713.02,1803.85 9713.02,1779.36 9713.02,1754.87 9713.02,1730.39 9713.02,1705.9 9713.02,1681.42 9713.02,1656.93 9713.02,1632.44 9713.02,1607.95 9713.02,1583.47 9713.02,1558.98 9713.02,1534.5 9713.02,1510.01 9713.02,1485.52 9713.02,1461.03 9713.02,1436.55 9713.02,1412.06 9713.02,1387.58 9713.02,1363.09 9713.02,1338.6 9713.02,1314.11 9713.02,1289.63 9713.02,1265.14 9713.02,1240.66 9713.02,1216.17 9713.02,1191.68 9713.02,1167.19 9713.02,1142.71 9688.53,1118.22 9664.05,1118.22 9639.56,1118.22 9615.08,1118.22 9590.59,1118.22 9566.1,1118.22 9541.61,1118.22 9517.13,1118.22 9492.64,1118.22 9468.16,1118.22 9443.67,1118.22 9419.18,1118.22 9394.69,1118.22 9370.21,1118.22 9345.72,1118.22 9321.24,1118.22 9296.75,1118.22 9272.26,1118.22 9247.77,1118.22 9223.29,1118.22 9198.8,1118.22 9174.32,1118.22 9149.83,1093.74 9149.83,1069.25 9149.83,1044.76 9149.83,1020.27 9149.83,995.79 9149.83,971.3 9149.83,946.82 9149.83,922.33 9149.83,897.85 9149.83,873.35 9149.83,848.87 9149.83,824.38 9149.83,799.9 9149.83,775.41 9149.83,750.93 9149.83,726.43 9149.83,701.95 9149.83,677.46 9149.83,652.98 9149.83,628.49 9149.83,604.01 9149.83,579.51 9149.83,555.03 9149.83,530.54 9149.83,506.06 9149.83,481.57 9149.83,457.09 9149.83,432.6 9149.83,408.11 9149.83,383.62 9149.83,359.14 9149.83,334.65 9149.83,310.17 9149.83,285.68 9149.83,261.19 9149.83,236.7 9149.83,212.22 9149.83,187.73 9149.83,163.25 9149.83,138.76 9149.83,114.27 9149.83,89.78 9149.83,65.3 9149.83,40.81 9125.35,16.33 9100.85,16.33 9076.37,16.33 9051.88,16.33 9027.4,16.33 9002.91,16.33 8978.43,16.33 8953.93,16.33 8929.45,16.33 8904.96,16.33 8880.48,16.33 8855.99,16.33 8831.51,16.33 8807.01,16.33 8782.53,16.33 8758.04,16.33 8733.56,16.33 8709.07,16.33 8684.59,16.33 8660.09,16.33 8635.61,16.33 8611.12,16.33 8586.64,16.33 8562.15,16.33 8537.67,16.33 8513.18,16.33 8488.69,16.33 8464.2,16.33 8439.72,16.33 8415.23,16.33 8390.75,16.33 8366.26,16.33 8341.77,16.33 8317.28,16.33 8292.8,16.33 8268.31,16.33 8243.83,16.33 8219.34,16.33 8194.85,16.33 8170.36,16.33 8145.88,16.33 8121.39,16.33 8096.91,16.33 8072.42,16.33 8047.93,16.33 8023.44,16.33 7998.96,16.33 7974.47,16.33 7949.99,16.33 7925.5,16.33 7901.01,16.33 7876.52,16.33 7852.04,16.33 7827.55,16.33 7803.07,16.33 7778.58,16.33 7754.1,16.33 7729.6,16.33 7705.12,16.33 7680.63,16.33 7656.15,16.33 7631.66,16.33 7607.18,16.33 7582.68,16.33 7558.2,16.33 7533.71,16.33 7509.23,16.33 7484.74,16.33 7460.26,16.33 7435.76,16.33 7411.28,16.33 7386.79,16.33 7362.31,16.33 7337.82,16.33 7313.34,16.33 7288.84,16.33 7264.36,16.33 7239.87,16.33 7215.39,16.33 7190.9,16.33 7166.42,16.33 7141.93,16.33 7117.44,16.33 7092.95,16.33 7068.47,16.33 7043.98,16.33 7019.5,16.33 6995.01,16.33 6970.52,16.33 6946.03,16.33 6921.55,16.33 6897.06,16.33 6872.58,16.33 6848.09,16.33 6823.6,16.33 6799.11,16.33 6774.63,16.33 6750.14,16.33 6725.66,16.33 6701.17,16.33 6676.68,16.33 6652.19,16.33 6627.71,16.33 6603.22,16.33 6578.74,16.33 6554.25,16.33 6529.76,16.33 6505.27,16.33 6480.79,16.33 6456.3,16.33 6431.82,16.33 6407.33,16.33 6382.85,16.33 6358.35,16.33 6333.87,16.33 6309.38,16.33 6284.9,16.33 6260.41,16.33 6235.93,16.33 6211.43,16.33 6186.95,16.33 6162.46,16.33 6137.98,16.33 6113.49,16.33 6089.01,16.33 6064.51,16.33 6040.03,16.33 6015.54,16.33 5991.06,16.33 5966.57,16.33 5942.09,16.33 5917.59,16.33 5893.11,16.33 5868.62,16.33 5844.14,16.33 5819.65,16.33 5795.17,16.33 5770.68,16.33 5746.19,16.33 5721.7,16.33 5697.22,16.33 5672.73,16.33 5648.25,16.33 5623.76,16.33 5599.27,16.33 5574.78,16.33 5550.3,16.33 5525.81,16.33 5501.33,16.33 5476.84,16.33 5452.35,16.33 5427.86,16.33 5403.38,16.33 5378.89,16.33 5354.41,16.33 5329.92,16.33 5305.43,16.33 5280.94,16.33 5256.46,16.33 5231.97,16.33 5207.49,16.33 5183,16.33 5158.51,16.33 5134.02,16.33 5109.54,16.33 5085.05,16.33 5060.57,16.33 5036.08,16.33 5011.6,16.33 4987.1,16.33 4962.62,16.33 4938.13,16.33 4913.65,16.33 4889.16,16.33 4864.68,16.33 4840.18,16.33 4815.7,16.33 4791.21,16.33 4766.73,16.33 4742.24,16.33 4717.76,16.33 4693.26,16.33 4668.78,16.33 4644.29,16.33 4619.81,16.33 4595.32,16.33 4570.84,16.33 4546.35,16.33 4521.86,16.33 4497.37,16.33 4472.89,16.33 4448.4,16.33 4423.92,16.33 4399.43,16.33 4374.94,16.33 4350.45,16.33 4325.97,16.33 4301.48,16.33 4277,16.33 4252.51,16.33 4228.02,16.33 4203.53,16.33 4179.05,16.33 4154.56,16.33 4130.08,16.33 4105.59,16.33 4081.1,16.33 4056.61,16.33 4032.13,16.33 4007.64,16.33 3983.16,16.33 3958.67,16.33 3934.18,16.33 3909.69,16.33 3885.21,16.33 3860.72,16.33 3836.24,16.33 3811.75,16.33 3787.26,16.33 3762.77,16.33 3738.29,16.33 3713.8,16.33 3689.32,16.33 3664.83,16.33 3640.35,16.33 3615.85,16.33 3591.37,16.33 3566.88,16.33 3542.4,16.33 3517.91,16.33 3493.43,16.33 3468.93,16.33 3444.45,16.33 3419.96,16.33 3395.48,16.33 3370.99,16.33 3346.51,16.33 3322.01,16.33 3297.53,16.33 3273.04,16.33 3248.56,16.33 3224.07,16.33 3199.59,16.33 3175.1,16.33 3150.61,16.33 3126.12,16.33 3101.64,16.33 3077.15,16.33 3052.67,16.33 3028.18,16.33 3003.69,16.33 2979.2,16.33 2954.72,16.33 2930.23,16.33 2905.75,16.33 2881.26,16.33 2856.77,16.33 2832.28,16.33 2807.8,16.33 2783.31,16.33 2758.83,16.33 2734.34,16.33 2709.85,16.33 2685.36,16.33 2660.88,16.33 2636.39,16.33 2611.91,16.33 2587.42,16.33 2562.93,16.33 2538.44,16.33 2513.96,16.33 2489.47,16.33 2464.99,16.33 2440.5,16.33 2416.01,16.33 2391.52,16.33 2367.04,16.33 2342.55,16.33 2318.07,16.33 2293.58,16.33 2269.1,16.33 2244.6,16.33 2220.12,16.33 2195.63,16.33 2171.15,16.33 2146.66,16.33 2122.18,16.33 2097.68,16.33 2073.2,16.33 2048.71,16.33 2024.23,16.33 1999.74,16.33 1975.26,16.33 1950.76,16.33 1926.28,16.33 1901.79,16.33 1877.31,16.33 1852.82,16.33 1828.34,16.33 1803.85,16.33 1779.36,16.33 1754.87,16.33 1730.39,16.33 1705.9,16.33 1681.42,16.33 1656.93,16.33 1632.44,16.33 1607.95,16.33 1583.47,16.33 1558.98,16.33 1534.5,16.33 1510.01,16.33 1485.52,16.33 1461.03,16.33 1436.55,16.33 1412.06,16.33 1387.58,16.33 1363.09,16.33 1338.6,16.33 1314.11,16.33 1289.63,16.33 1265.14,16.33 1240.66,16.33 1216.17,16.33 1191.68,16.33 1167.19,16.33 1142.71,16.33 1118.22,16.33 1093.74,16.33 1069.25,16.33 1044.76,16.33 1020.27,16.33 995.79,16.33 971.3,16.33 946.82,16.33 922.33,16.33 897.85,16.33 873.35,16.33 848.87,16.33 824.38,16.33 799.9,16.33 775.41,16.33 750.93,16.33 726.43,16.33 701.95,16.33 677.46,16.33 652.98,16.33 628.49,16.33 604.01,16.33 579.51,16.33 555.03,16.33 530.54,16.33 506.06,16.33 481.57,16.33 457.09,16.33 432.6,16.33 408.11,16.33 383.62,16.33 359.14,16.33 334.65,16.33 310.17,16.33 285.68,16.33 261.19,16.33 236.7,16.33 212.22,16.33 187.73,16.33 163.25,16.33 138.76,16.33 114.27,16.33 89.78,16.33 65.3,16.33 "/>
 </g>
</svg>
