<?xml version="1.0" encoding="UTF-8"?>
<!DOCTYPE svg PUBLIC "-//W3C//DTD SVG 1.1//EN" "http://www.w3.org/Graphics/SVG/1.1/DTD/svg11.dtd">
<!-- Creator: CorelDRAW 2019 (64-Bit OEM Version) -->
<svg xmlns="http://www.w3.org/2000/svg" xml:space="preserve" width="95.0616mm" height="110.935mm" version="1.1" style="shape-rendering:geometricPrecision; text-rendering:geometricPrecision; image-rendering:optimizeQuality; fill-rule:evenodd; clip-rule:evenodd"
viewBox="0 0 9506.16 11093.48"
 xmlns:xlink="http://www.w3.org/1999/xlink"
 xmlns:xodm="http://www.corel.com/coreldraw/odm/2003">
 <defs>
  <style type="text/css">
   <![CDATA[
    .str0 {stroke:black;stroke-width:35.28;stroke-linecap:square;stroke-miterlimit:22.9256}
    .fil0 {fill:none}
   ]]>
  </style>
 </defs>
 <g id="Layer_x0020_1">
  <metadata id="CorelCorpID_0Corel-Layer"/>
  <g id="_1574292709728">
   <polygon class="fil0 str0" points="44.09,17.64 17.64,44.09 17.64,70.55 17.64,97 17.64,123.46 17.64,149.91 17.64,176.37 17.64,202.82 17.64,229.28 17.64,255.73 17.64,282.19 17.64,308.64 17.64,335.1 17.64,361.55 17.64,388.01 17.64,414.46 17.64,440.92 17.64,467.37 17.64,493.83 17.64,520.28 17.64,546.74 17.64,573.19 17.64,599.65 17.64,626.1 17.64,652.56 17.64,679.01 17.64,705.47 17.64,731.92 17.64,758.38 17.64,784.83 17.64,811.29 17.64,837.74 17.64,864.2 17.64,890.65 17.64,917.11 17.64,943.56 17.64,970.02 17.64,996.47 17.64,1022.93 17.64,1049.38 17.64,1075.84 44.09,1102.29 70.55,1102.29 97,1102.29 123.46,1102.29 149.91,1102.29 176.37,1102.29 202.82,1102.29 229.28,1102.29 255.73,1102.29 282.19,1102.29 308.64,1102.29 335.1,1102.29 361.55,1102.29 388.01,1102.29 414.46,1102.29 440.92,1102.29 467.37,1102.29 493.83,1102.29 520.28,1102.29 546.74,1102.29 573.19,1128.75 573.19,1155.2 573.19,1181.66 573.19,1208.11 573.19,1234.57 573.19,1261.02 573.19,1287.48 573.19,1313.93 573.19,1340.39 573.19,1366.84 573.19,1393.3 573.19,1419.75 573.19,1446.21 573.19,1472.66 573.19,1499.12 573.19,1525.57 573.19,1552.03 573.19,1578.48 573.19,1604.94 573.19,1631.39 573.19,1657.85 573.19,1684.3 573.19,1710.76 573.19,1737.21 573.19,1763.67 573.19,1790.12 573.19,1816.58 573.19,1843.03 573.19,1869.49 573.19,1895.94 573.19,1922.4 573.19,1948.85 573.19,1975.31 573.19,2001.76 573.19,2028.22 573.19,2054.67 573.19,2081.13 573.19,2107.58 573.19,2134.04 546.74,2160.49 520.28,2160.49 493.83,2160.49 467.37,2160.49 440.92,2160.49 414.46,2160.49 388.01,2160.49 361.55,2160.49 335.1,2160.49 308.64,2160.49 282.19,2160.49 255.73,2160.49 229.28,2160.49 202.82,2160.49 176.37,2160.49 149.91,2160.49 123.46,2160.49 97,2160.49 70.55,2160.49 44.09,2160.49 17.64,2186.95 17.64,2213.4 17.64,2239.86 17.64,2266.31 17.64,2292.77 17.64,2319.22 17.64,2345.68 17.64,2372.13 17.64,2398.59 17.64,2425.04 17.64,2451.5 17.64,2477.95 17.64,2504.41 17.64,2530.86 17.64,2557.32 17.64,2583.77 17.64,2610.23 17.64,2636.68 17.64,2663.14 17.64,2689.6 17.64,2716.05 17.64,2742.51 17.64,2768.96 17.64,2795.42 17.64,2821.87 17.64,2848.33 17.64,2874.78 17.64,2901.24 17.64,2927.69 17.64,2954.15 17.64,2980.6 17.64,3007.06 17.64,3033.51 17.64,3059.97 17.64,3086.42 17.64,3112.88 17.64,3139.33 17.64,3165.79 17.64,3192.24 17.64,3218.7 17.64,3245.15 17.64,3271.61 17.64,3298.06 17.64,3324.52 17.64,3350.97 17.64,3377.43 17.64,3403.88 17.64,3430.34 17.64,3456.79 17.64,3483.25 17.64,3509.7 17.64,3536.16 17.64,3562.61 17.64,3589.07 17.64,3615.52 17.64,3641.98 17.64,3668.43 17.64,3694.89 17.64,3721.34 17.64,3747.8 17.64,3774.25 17.64,3800.71 17.64,3827.16 17.64,3853.62 17.64,3880.07 17.64,3906.53 17.64,3932.98 17.64,3959.44 17.64,3985.89 17.64,4012.35 17.64,4038.8 17.64,4065.26 17.64,4091.71 17.64,4118.17 17.64,4144.62 17.64,4171.08 17.64,4197.53 17.64,4223.99 17.64,4250.44 17.64,4276.9 17.64,4303.35 17.64,4329.81 17.64,4356.26 17.64,4382.72 17.64,4409.17 17.64,4435.63 17.64,4462.08 17.64,4488.54 17.64,4514.99 17.64,4541.45 17.64,4567.9 17.64,4594.36 17.64,4620.81 17.64,4647.27 17.64,4673.72 17.64,4700.18 17.64,4726.63 44.09,4753.09 70.55,4753.09 97,4753.09 123.46,4753.09 149.91,4753.09 176.37,4753.09 202.82,4753.09 229.28,4753.09 255.73,4753.09 282.19,4753.09 308.64,4753.09 335.1,4753.09 361.55,4753.09 388.01,4753.09 414.46,4753.09 440.92,4753.09 467.37,4753.09 493.83,4753.09 520.28,4753.09 546.74,4753.09 573.19,4779.54 573.19,4806 573.19,4832.45 573.19,4858.91 573.19,4885.36 573.19,4911.82 573.19,4938.27 573.19,4964.73 573.19,4991.18 573.19,5017.64 573.19,5044.09 573.19,5070.55 573.19,5097 573.19,5123.46 573.19,5149.91 573.19,5176.37 573.19,5202.82 573.19,5229.28 573.19,5255.73 573.19,5282.19 573.19,5308.64 573.19,5335.1 573.19,5361.55 573.19,5388.01 573.19,5414.46 573.19,5440.92 573.19,5467.37 573.19,5493.83 573.19,5520.28 573.19,5546.74 573.19,5573.19 573.19,5599.65 573.19,5626.1 573.19,5652.56 573.19,5679.01 573.19,5705.47 573.19,5731.92 573.19,5758.38 573.19,5784.83 546.74,5811.29 520.28,5811.29 493.83,5811.29 467.37,5811.29 440.92,5811.29 414.46,5811.29 388.01,5811.29 361.55,5811.29 335.1,5811.29 308.64,5811.29 282.19,5811.29 255.73,5811.29 229.28,5811.29 202.82,5811.29 176.37,5811.29 149.91,5811.29 123.46,5811.29 97,5811.29 70.55,5811.29 44.09,5811.29 17.64,5837.74 17.64,5864.2 17.64,5890.65 17.64,5917.11 17.64,5943.56 17.64,5970.02 17.64,5996.47 17.64,6022.93 17.64,6049.38 17.64,6075.84 17.64,6102.29 17.64,6128.75 17.64,6155.2 17.64,6181.66 17.64,6208.11 17.64,6234.57 17.64,6261.02 17.64,6287.48 17.64,6313.93 17.64,6340.39 17.64,6366.84 17.64,6393.3 17.64,6419.75 17.64,6446.21 17.64,6472.66 17.64,6499.12 17.64,6525.57 17.64,6552.03 17.64,6578.48 17.64,6604.94 17.64,6631.39 17.64,6657.85 17.64,6684.3 17.64,6710.76 17.64,6737.21 17.64,6763.67 17.64,6790.12 17.64,6816.58 17.64,6843.03 17.64,6869.49 17.64,6895.94 17.64,6922.4 17.64,6948.85 17.64,6975.31 17.64,7001.76 17.64,7028.22 17.64,7054.67 17.64,7081.13 17.64,7107.58 17.64,7134.04 17.64,7160.49 17.64,7186.95 17.64,7213.4 17.64,7239.86 17.64,7266.31 17.64,7292.77 17.64,7319.22 17.64,7345.68 17.64,7372.13 17.64,7398.59 17.64,7425.04 17.64,7451.5 17.64,7477.95 17.64,7504.41 17.64,7530.86 17.64,7557.32 17.64,7583.77 17.64,7610.23 17.64,7636.68 17.64,7663.14 17.64,7689.59 17.64,7716.05 17.64,7742.5 17.64,7768.96 17.64,7795.41 17.64,7821.87 17.64,7848.32 17.64,7874.78 17.64,7901.23 17.64,7927.69 17.64,7954.14 17.64,7980.6 17.64,8007.05 17.64,8033.51 17.64,8059.96 17.64,8086.42 17.64,8112.87 17.64,8139.33 17.64,8165.78 17.64,8192.24 17.64,8218.69 17.64,8245.15 17.64,8271.6 17.64,8298.06 17.64,8324.52 17.64,8350.97 17.64,8377.43 44.09,8403.88 70.55,8403.88 97,8403.88 123.46,8403.88 149.91,8403.88 176.37,8403.88 202.82,8403.88 229.28,8403.88 255.73,8403.88 282.19,8403.88 308.64,8403.88 335.1,8403.88 361.55,8403.88 388.01,8403.88 414.46,8403.88 440.92,8403.88 467.37,8403.88 493.83,8403.88 520.28,8403.88 546.74,8403.88 573.19,8430.34 573.19,8456.79 573.19,8483.25 573.19,8509.7 573.19,8536.16 573.19,8562.61 573.19,8589.07 573.19,8615.52 573.19,8641.98 573.19,8668.43 573.19,8694.89 573.19,8721.34 573.19,8747.8 573.19,8774.25 573.19,8800.71 573.19,8827.16 573.19,8853.62 573.19,8880.07 573.19,8906.53 573.19,8932.98 573.19,8959.44 573.19,8985.89 573.19,9012.35 573.19,9038.8 573.19,9065.26 573.19,9091.71 573.19,9118.17 573.19,9144.62 573.19,9171.08 573.19,9197.53 573.19,9223.99 573.19,9250.44 573.19,9276.9 573.19,9303.35 573.19,9329.81 573.19,9356.26 573.19,9382.72 573.19,9409.17 573.19,9435.63 546.74,9462.08 520.28,9462.08 493.83,9462.08 467.37,9462.08 440.92,9462.08 414.46,9462.08 388.01,9462.08 361.55,9462.08 335.1,9462.08 308.64,9462.08 282.19,9462.08 255.73,9462.08 229.28,9462.08 202.82,9462.08 176.37,9462.08 149.91,9462.08 123.46,9462.08 97,9462.08 70.55,9462.08 44.09,9462.08 17.64,9488.54 17.64,9514.99 17.64,9541.45 17.64,9567.9 17.64,9594.36 17.64,9620.81 17.64,9647.27 17.64,9673.72 17.64,9700.18 17.64,9726.63 17.64,9753.09 17.64,9779.54 17.64,9806 17.64,9832.45 17.64,9858.91 17.64,9885.36 17.64,9911.82 17.64,9938.27 17.64,9964.73 17.64,9991.18 17.64,10017.64 17.64,10044.09 17.64,10070.55 17.64,10097 17.64,10123.46 17.64,10149.91 17.64,10176.37 17.64,10202.82 17.64,10229.28 17.64,10255.73 17.64,10282.19 17.64,10308.64 17.64,10335.1 17.64,10361.55 17.64,10388.01 17.64,10414.46 17.64,10440.92 17.64,10467.37 17.64,10493.83 17.64,10520.28 44.09,10546.74 70.55,10546.74 97,10546.74 123.46,10546.74 149.91,10546.74 176.37,10546.74 202.82,10546.74 229.28,10546.74 255.73,10546.74 282.19,10546.74 308.64,10546.74 335.1,10546.74 361.55,10546.74 388.01,10546.74 414.46,10546.74 440.92,10546.74 467.37,10546.74 493.83,10546.74 520.28,10546.74 546.74,10546.74 573.19,10546.74 599.65,10546.74 626.1,10546.74 652.56,10546.74 679.01,10546.74 705.47,10546.74 731.92,10546.74 758.38,10546.74 784.83,10546.74 811.29,10546.74 837.74,10546.74 864.2,10546.74 890.65,10546.74 917.11,10546.74 943.56,10546.74 970.02,10546.74 996.47,10546.74 1022.93,10546.74 1049.38,10546.74 1075.84,10546.74 1102.29,10573.19 1102.29,10599.65 1102.29,10626.1 1102.29,10652.56 1102.29,10679.01 1102.29,10705.47 1102.29,10731.92 1102.29,10758.38 1102.29,10784.83 1102.29,10811.29 1102.29,10837.74 1102.29,10864.2 1102.29,10890.65 1102.29,10917.11 1102.29,10943.56 1102.29,10970.02 1102.29,10996.47 1102.29,11022.93 1102.29,11049.38 1128.75,11075.84 1155.2,11075.84 1181.66,11075.84 1208.11,11075.84 1234.57,11075.84 1261.02,11075.84 1287.48,11075.84 1313.93,11075.84 1340.39,11075.84 1366.84,11075.84 1393.3,11075.84 1419.75,11075.84 1446.21,11075.84 1472.66,11075.84 1499.12,11075.84 1525.57,11075.84 1552.03,11075.84 1578.48,11075.84 1604.94,11075.84 1631.39,11075.84 1657.85,11075.84 1684.3,11075.84 1710.76,11075.84 1737.21,11075.84 1763.67,11075.84 1790.12,11075.84 1816.58,11075.84 1843.03,11075.84 1869.49,11075.84 1895.94,11075.84 1922.4,11075.84 1948.85,11075.84 1975.31,11075.84 2001.76,11075.84 2028.22,11075.84 2054.67,11075.84 2081.13,11075.84 2107.58,11075.84 2134.04,11075.84 2160.49,11049.38 2160.49,11022.93 2160.49,10996.47 2160.49,10970.02 2160.49,10943.56 2160.49,10917.11 2160.49,10890.65 2160.49,10864.2 2160.49,10837.74 2160.49,10811.29 2160.49,10784.83 2160.49,10758.38 2160.49,10731.92 2160.49,10705.47 2160.49,10679.01 2160.49,10652.56 2160.49,10626.1 2160.49,10599.65 2160.49,10573.19 2186.95,10546.74 2213.4,10546.74 2239.86,10546.74 2266.31,10546.74 2292.77,10546.74 2319.22,10546.74 2345.68,10546.74 2372.13,10546.74 2398.59,10546.74 2425.04,10546.74 2451.5,10546.74 2477.95,10546.74 2504.41,10546.74 2530.86,10546.74 2557.32,10546.74 2583.77,10546.74 2610.23,10546.74 2636.68,10546.74 2663.14,10546.74 2689.59,10546.74 2716.05,10546.74 2742.5,10546.74 2768.96,10546.74 2795.41,10546.74 2821.87,10546.74 2848.32,10546.74 2874.78,10546.74 2901.23,10546.74 2927.69,10546.74 2954.14,10546.74 2980.6,10546.74 3007.05,10546.74 3033.51,10546.74 3059.96,10546.74 3086.42,10546.74 3112.87,10546.74 3139.33,10546.74 3165.78,10546.74 3192.24,10546.74 3218.69,10546.74 3245.15,10546.74 3271.6,10546.74 3298.06,10546.74 3324.51,10546.74 3350.97,10546.74 3377.42,10546.74 3403.88,10546.74 3430.33,10546.74 3456.79,10546.74 3483.24,10546.74 3509.7,10546.74 3536.15,10546.74 3562.61,10546.74 3589.06,10546.74 3615.52,10546.74 3641.97,10546.74 3668.43,10546.74 3694.88,10546.74 3721.34,10546.74 3747.79,10546.74 3774.25,10546.74 3800.7,10546.74 3827.16,10546.74 3853.61,10546.74 3880.07,10546.74 3906.52,10546.74 3932.98,10546.74 3959.43,10546.74 3985.89,10546.74 4012.34,10573.19 4012.34,10599.65 4012.34,10626.1 4012.34,10652.56 4012.34,10679.01 4012.34,10705.47 4012.34,10731.92 4012.34,10758.38 4012.34,10784.83 4012.34,10811.29 4012.34,10837.74 4012.34,10864.2 4012.34,10890.65 4012.34,10917.11 4012.34,10943.56 4012.34,10970.02 4012.34,10996.47 4012.34,11022.93 4012.34,11049.38 4038.8,11075.84 4065.25,11075.84 4091.71,11075.84 4118.16,11075.84 4144.62,11075.84 4171.07,11075.84 4197.53,11075.84 4223.98,11075.84 4250.44,11075.84 4276.89,11075.84 4303.35,11075.84 4329.8,11075.84 4356.26,11075.84 4382.71,11075.84 4409.17,11075.84 4435.62,11075.84 4462.08,11075.84 4488.53,11075.84 4514.99,11075.84 4541.44,11075.84 4567.9,11075.84 4594.35,11075.84 4620.81,11075.84 4647.26,11075.84 4673.72,11075.84 4700.17,11075.84 4726.62,11075.84 4753.08,11075.84 4779.53,11075.84 4805.99,11075.84 4832.44,11075.84 4858.9,11075.84 4885.35,11075.84 4911.81,11075.84 4938.26,11075.84 4964.72,11075.84 4991.17,11075.84 5017.63,11075.84 5044.08,11075.84 5070.54,11075.84 5096.99,11049.38 5096.99,11022.93 5096.99,10996.47 5096.99,10970.02 5096.99,10943.56 5096.99,10917.11 5096.99,10890.65 5096.99,10864.2 5096.99,10837.74 5096.99,10811.29 5096.99,10784.83 5096.99,10758.38 5096.99,10731.92 5096.99,10705.47 5096.99,10679.01 5096.99,10652.56 5096.99,10626.1 5096.99,10599.65 5096.99,10573.19 5123.45,10546.74 5149.9,10546.74 5176.36,10546.74 5202.81,10546.74 5229.27,10546.74 5255.72,10546.74 5282.18,10546.74 5308.63,10546.74 5335.09,10546.74 5361.54,10546.74 5388,10546.74 5414.45,10546.74 5440.91,10546.74 5467.36,10546.74 5493.82,10546.74 5520.27,10546.74 5546.73,10546.74 5573.18,10546.74 5599.64,10546.74 5626.09,10546.74 5652.55,10546.74 5679,10546.74 5705.46,10546.74 5731.91,10546.74 5758.37,10546.74 5784.82,10546.74 5811.28,10546.74 5837.73,10546.74 5864.19,10546.74 5890.64,10546.74 5917.1,10546.74 5943.55,10546.74 5970.01,10546.74 5996.46,10546.74 6022.92,10546.74 6049.37,10546.74 6075.83,10546.74 6102.28,10546.74 6128.74,10546.74 6155.19,10546.74 6181.65,10546.74 6208.1,10546.74 6234.56,10546.74 6261.01,10546.74 6287.47,10546.74 6313.92,10546.74 6340.38,10546.74 6366.83,10546.74 6393.29,10546.74 6419.74,10546.74 6446.2,10546.74 6472.65,10546.74 6499.11,10546.74 6525.56,10546.74 6552.02,10546.74 6578.47,10546.74 6604.93,10546.74 6631.38,10546.74 6657.84,10546.74 6684.29,10546.74 6710.75,10546.74 6737.2,10546.74 6763.66,10546.74 6790.11,10546.74 6816.57,10546.74 6843.02,10546.74 6869.48,10546.74 6895.93,10546.74 6922.39,10546.74 6948.84,10573.19 6948.84,10599.65 6948.84,10626.1 6948.84,10652.56 6948.84,10679.01 6948.84,10705.47 6948.84,10731.92 6948.84,10758.38 6948.84,10784.83 6948.84,10811.29 6948.84,10837.74 6948.84,10864.2 6948.84,10890.65 6948.84,10917.11 6948.84,10943.56 6948.84,10970.02 6948.84,10996.47 6948.84,11022.93 6948.84,11049.38 6975.3,11075.84 7001.75,11075.84 7028.21,11075.84 7054.66,11075.84 7081.12,11075.84 7107.57,11075.84 7134.03,11075.84 7160.48,11075.84 7186.94,11075.84 7213.39,11075.84 7239.85,11075.84 7266.3,11075.84 7292.76,11075.84 7319.21,11075.84 7345.67,11075.84 7372.12,11075.84 7398.58,11075.84 7425.03,11075.84 7451.49,11075.84 7477.94,11075.84 7504.4,11075.84 7530.85,11075.84 7557.31,11075.84 7583.76,11075.84 7610.22,11075.84 7636.67,11075.84 7663.13,11075.84 7689.58,11075.84 7716.04,11075.84 7742.49,11075.84 7768.95,11075.84 7795.4,11075.84 7821.86,11075.84 7848.31,11075.84 7874.77,11075.84 7901.22,11075.84 7927.68,11075.84 7954.13,11075.84 7980.59,11075.84 8007.04,11049.38 8007.04,11022.93 8007.04,10996.47 8007.04,10970.02 8007.04,10943.56 8007.04,10917.11 8007.04,10890.65 8007.04,10864.2 8007.04,10837.74 8007.04,10811.29 8007.04,10784.83 8007.04,10758.38 8007.04,10731.92 8007.04,10705.47 8007.04,10679.01 8007.04,10652.56 8007.04,10626.1 8007.04,10599.65 8007.04,10573.19 8033.5,10546.74 8059.95,10546.74 8086.41,10546.74 8112.86,10546.74 8139.32,10546.74 8165.77,10546.74 8192.23,10546.74 8218.68,10546.74 8245.14,10546.74 8271.59,10546.74 8298.05,10546.74 8324.5,10546.74 8350.96,10546.74 8377.41,10546.74 8403.87,10546.74 8430.32,10546.74 8456.78,10546.74 8483.23,10546.74 8509.69,10546.74 8536.14,10546.74 8562.6,10546.74 8589.05,10546.74 8615.51,10546.74 8641.96,10546.74 8668.42,10546.74 8694.87,10546.74 8721.33,10546.74 8747.78,10546.74 8774.24,10546.74 8800.69,10546.74 8827.15,10546.74 8853.6,10546.74 8880.06,10546.74 8906.51,10546.74 8932.97,10520.28 8932.97,10493.83 8932.97,10467.37 8932.97,10440.92 8932.97,10414.46 8932.97,10388.01 8932.97,10361.55 8932.97,10335.1 8932.97,10308.64 8932.97,10282.19 8932.97,10255.73 8932.97,10229.28 8932.97,10202.82 8932.97,10176.37 8932.97,10149.91 8932.97,10123.46 8932.97,10097 8932.97,10070.55 8932.97,10044.09 8932.97,10017.64 8932.97,9991.18 8932.97,9964.73 8932.97,9938.27 8932.97,9911.82 8932.97,9885.36 8932.97,9858.91 8932.97,9832.45 8932.97,9806 8932.97,9779.54 8932.97,9753.09 8932.97,9726.63 8932.97,9700.18 8932.97,9673.72 8932.97,9647.27 8932.97,9620.81 8932.97,9594.36 8932.97,9567.9 8932.97,9541.45 8932.97,9514.99 8932.97,9488.54 8959.42,9462.08 8985.88,9462.08 9012.33,9462.08 9038.79,9462.08 9065.24,9462.08 9091.7,9462.08 9118.15,9462.08 9144.61,9462.08 9171.06,9462.08 9197.52,9462.08 9223.97,9462.08 9250.43,9462.08 9276.88,9462.08 9303.34,9462.08 9329.79,9462.08 9356.25,9462.08 9382.7,9462.08 9409.16,9462.08 9435.61,9462.08 9462.07,9462.08 9488.52,9435.63 9488.52,9409.17 9488.52,9382.72 9488.52,9356.26 9488.52,9329.81 9488.52,9303.35 9488.52,9276.9 9488.52,9250.44 9488.52,9223.99 9488.52,9197.53 9488.52,9171.08 9488.52,9144.62 9488.52,9118.17 9488.52,9091.71 9488.52,9065.26 9488.52,9038.8 9488.52,9012.35 9488.52,8985.89 9488.52,8959.44 9488.52,8932.98 9488.52,8906.53 9488.52,8880.07 9488.52,8853.62 9488.52,8827.16 9488.52,8800.71 9488.52,8774.25 9488.52,8747.8 9488.52,8721.34 9488.52,8694.89 9488.52,8668.43 9488.52,8641.98 9488.52,8615.52 9488.52,8589.07 9488.52,8562.61 9488.52,8536.16 9488.52,8509.7 9488.52,8483.25 9488.52,8456.79 9488.52,8430.34 9462.07,8403.88 9435.61,8403.88 9409.16,8403.88 9382.7,8403.88 9356.25,8403.88 9329.79,8403.88 9303.34,8403.88 9276.88,8403.88 9250.43,8403.88 9223.97,8403.88 9197.52,8403.88 9171.06,8403.88 9144.61,8403.88 9118.15,8403.88 9091.7,8403.88 9065.24,8403.88 9038.79,8403.88 9012.33,8403.88 8985.88,8403.88 8959.42,8403.88 8932.97,8377.43 8932.97,8350.97 8932.97,8324.52 8932.97,8298.06 8932.97,8271.6 8932.97,8245.15 8932.97,8218.69 8932.97,8192.24 8932.97,8165.78 8932.97,8139.33 8932.97,8112.87 8932.97,8086.42 8932.97,8059.96 8932.97,8033.51 8932.97,8007.05 8932.97,7980.6 8932.97,7954.14 8932.97,7927.69 8932.97,7901.23 8932.97,7874.78 8932.97,7848.32 8932.97,7821.87 8932.97,7795.41 8932.97,7768.96 8932.97,7742.5 8932.97,7716.05 8932.97,7689.59 8932.97,7663.14 8932.97,7636.68 8932.97,7610.23 8932.97,7583.77 8932.97,7557.32 8932.97,7530.86 8932.97,7504.41 8932.97,7477.95 8932.97,7451.5 8932.97,7425.04 8932.97,7398.59 8932.97,7372.13 8932.97,7345.68 8932.97,7319.22 8932.97,7292.77 8932.97,7266.31 8932.97,7239.86 8932.97,7213.4 8932.97,7186.95 8932.97,7160.49 8932.97,7134.04 8932.97,7107.58 8932.97,7081.13 8932.97,7054.67 8932.97,7028.22 8932.97,7001.76 8932.97,6975.31 8932.97,6948.85 8932.97,6922.4 8932.97,6895.94 8932.97,6869.49 8932.97,6843.03 8932.97,6816.58 8932.97,6790.12 8932.97,6763.67 8932.97,6737.21 8932.97,6710.76 8932.97,6684.3 8932.97,6657.85 8932.97,6631.39 8932.97,6604.94 8932.97,6578.48 8932.97,6552.03 8932.97,6525.57 8932.97,6499.12 8932.97,6472.66 8932.97,6446.21 8932.97,6419.75 8932.97,6393.3 8932.97,6366.84 8932.97,6340.39 8932.97,6313.93 8932.97,6287.48 8932.97,6261.02 8932.97,6234.57 8932.97,6208.11 8932.97,6181.66 8932.97,6155.2 8932.97,6128.75 8932.97,6102.29 8932.97,6075.84 8932.97,6049.38 8932.97,6022.93 8932.97,5996.47 8932.97,5970.02 8932.97,5943.56 8932.97,5917.11 8932.97,5890.65 8932.97,5864.2 8932.97,5837.74 8959.42,5811.29 8985.88,5811.29 9012.33,5811.29 9038.79,5811.29 9065.24,5811.29 9091.7,5811.29 9118.15,5811.29 9144.61,5811.29 9171.06,5811.29 9197.52,5811.29 9223.97,5811.29 9250.43,5811.29 9276.88,5811.29 9303.34,5811.29 9329.79,5811.29 9356.25,5811.29 9382.7,5811.29 9409.16,5811.29 9435.61,5811.29 9462.07,5811.29 9488.52,5784.83 9488.52,5758.38 9488.52,5731.92 9488.52,5705.47 9488.52,5679.01 9488.52,5652.56 9488.52,5626.1 9488.52,5599.65 9488.52,5573.19 9488.52,5546.74 9488.52,5520.28 9488.52,5493.83 9488.52,5467.37 9488.52,5440.92 9488.52,5414.46 9488.52,5388.01 9488.52,5361.55 9488.52,5335.1 9488.52,5308.64 9488.52,5282.19 9488.52,5255.73 9488.52,5229.28 9488.52,5202.82 9488.52,5176.37 9488.52,5149.91 9488.52,5123.46 9488.52,5097 9488.52,5070.55 9488.52,5044.09 9488.52,5017.64 9488.52,4991.18 9488.52,4964.73 9488.52,4938.27 9488.52,4911.82 9488.52,4885.36 9488.52,4858.91 9488.52,4832.45 9488.52,4806 9488.52,4779.54 9462.07,4753.09 9435.61,4753.09 9409.16,4753.09 9382.7,4753.09 9356.25,4753.09 9329.79,4753.09 9303.34,4753.09 9276.88,4753.09 9250.43,4753.09 9223.97,4753.09 9197.52,4753.09 9171.06,4753.09 9144.61,4753.09 9118.15,4753.09 9091.7,4753.09 9065.24,4753.09 9038.79,4753.09 9012.33,4753.09 8985.88,4753.09 8959.42,4753.09 8932.97,4726.63 8932.97,4700.18 8932.97,4673.72 8932.97,4647.27 8932.97,4620.81 8932.97,4594.36 8932.97,4567.9 8932.97,4541.45 8932.97,4514.99 8932.97,4488.54 8932.97,4462.08 8932.97,4435.63 8932.97,4409.17 8932.97,4382.72 8932.97,4356.26 8932.97,4329.81 8932.97,4303.35 8932.97,4276.9 8932.97,4250.44 8932.97,4223.99 8932.97,4197.53 8932.97,4171.08 8932.97,4144.62 8932.97,4118.17 8932.97,4091.71 8932.97,4065.26 8932.97,4038.8 8932.97,4012.35 8932.97,3985.89 8932.97,3959.44 8932.97,3932.98 8932.97,3906.53 8932.97,3880.07 8932.97,3853.62 8932.97,3827.16 8932.97,3800.71 8932.97,3774.25 8932.97,3747.8 8932.97,3721.34 8932.97,3694.89 8932.97,3668.43 8932.97,3641.98 8932.97,3615.52 8932.97,3589.07 8932.97,3562.61 8932.97,3536.16 8932.97,3509.7 8932.97,3483.25 8932.97,3456.79 8932.97,3430.34 8932.97,3403.88 8932.97,3377.43 8932.97,3350.97 8932.97,3324.52 8932.97,3298.06 8932.97,3271.61 8932.97,3245.15 8932.97,3218.7 8932.97,3192.24 8932.97,3165.79 8932.97,3139.33 8932.97,3112.88 8932.97,3086.42 8932.97,3059.97 8932.97,3033.51 8932.97,3007.06 8932.97,2980.6 8932.97,2954.15 8932.97,2927.69 8932.97,2901.24 8932.97,2874.78 8932.97,2848.33 8932.97,2821.87 8932.97,2795.42 8932.97,2768.96 8932.97,2742.51 8932.97,2716.05 8932.97,2689.6 8932.97,2663.14 8932.97,2636.68 8932.97,2610.23 8932.97,2583.77 8932.97,2557.32 8932.97,2530.86 8932.97,2504.41 8932.97,2477.95 8932.97,2451.5 8932.97,2425.04 8932.97,2398.59 8932.97,2372.13 8932.97,2345.68 8932.97,2319.22 8932.97,2292.77 8932.97,2266.31 8932.97,2239.86 8932.97,2213.4 8932.97,2186.95 8959.42,2160.49 8985.88,2160.49 9012.33,2160.49 9038.79,2160.49 9065.24,2160.49 9091.7,2160.49 9118.15,2160.49 9144.61,2160.49 9171.06,2160.49 9197.52,2160.49 9223.97,2160.49 9250.43,2160.49 9276.88,2160.49 9303.34,2160.49 9329.79,2160.49 9356.25,2160.49 9382.7,2160.49 9409.16,2160.49 9435.61,2160.49 9462.07,2160.49 9488.52,2134.04 9488.52,2107.58 9488.52,2081.13 9488.52,2054.67 9488.52,2028.22 9488.52,2001.76 9488.52,1975.31 9488.52,1948.85 9488.52,1922.4 9488.52,1895.94 9488.52,1869.49 9488.52,1843.03 9488.52,1816.58 9488.52,1790.12 9488.52,1763.67 9488.52,1737.21 9488.52,1710.76 9488.52,1684.3 9488.52,1657.85 9488.52,1631.39 9488.52,1604.94 9488.52,1578.48 9488.52,1552.03 9488.52,1525.57 9488.52,1499.12 9488.52,1472.66 9488.52,1446.21 9488.52,1419.75 9488.52,1393.3 9488.52,1366.84 9488.52,1340.39 9488.52,1313.93 9488.52,1287.48 9488.52,1261.02 9488.52,1234.57 9488.52,1208.11 9488.52,1181.66 9488.52,1155.2 9488.52,1128.75 9462.07,1102.29 9435.61,1102.29 9409.16,1102.29 9382.7,1102.29 9356.25,1102.29 9329.79,1102.29 9303.34,1102.29 9276.88,1102.29 9250.43,1102.29 9223.97,1102.29 9197.52,1102.29 9171.06,1102.29 9144.61,1102.29 9118.15,1102.29 9091.7,1102.29 9065.24,1102.29 9038.79,1102.29 9012.33,1102.29 8985.88,1102.29 8959.42,1102.29 8932.97,1075.84 8932.97,1049.38 8932.97,1022.93 8932.97,996.47 8932.97,970.02 8932.97,943.56 8932.97,917.11 8932.97,890.65 8932.97,864.2 8932.97,837.74 8932.97,811.29 8932.97,784.83 8932.97,758.38 8932.97,731.92 8932.97,705.47 8932.97,679.01 8932.97,652.56 8932.97,626.1 8932.97,599.65 8932.97,573.19 8932.97,546.74 8932.97,520.28 8932.97,493.83 8932.97,467.37 8932.97,440.92 8932.97,414.46 8932.97,388.01 8932.97,361.55 8932.97,335.1 8932.97,308.64 8932.97,282.19 8932.97,255.73 8932.97,229.28 8932.97,202.82 8932.97,176.37 8932.97,149.91 8932.97,123.46 8932.97,97 8932.97,70.55 8932.97,44.09 8906.51,17.64 8880.06,17.64 8853.6,17.64 8827.15,17.64 8800.69,17.64 8774.24,17.64 8747.78,17.64 8721.33,17.64 8694.87,17.64 8668.42,17.64 8641.96,17.64 8615.51,17.64 8589.05,17.64 8562.6,17.64 8536.14,17.64 8509.69,17.64 8483.23,17.64 8456.78,17.64 8430.32,17.64 8403.87,17.64 8377.41,17.64 8350.96,17.64 8324.5,17.64 8298.05,17.64 8271.59,17.64 8245.14,17.64 8218.68,17.64 8192.23,17.64 8165.77,17.64 8139.32,17.64 8112.86,17.64 8086.41,17.64 8059.95,17.64 8033.5,17.64 8007.04,17.64 7980.59,17.64 7954.13,17.64 7927.68,17.64 7901.22,17.64 7874.77,17.64 7848.31,17.64 7821.86,17.64 7795.4,17.64 7768.95,17.64 7742.49,17.64 7716.04,17.64 7689.58,17.64 7663.13,17.64 7636.67,17.64 7610.22,17.64 7583.76,17.64 7557.31,17.64 7530.85,17.64 7504.4,17.64 7477.94,17.64 7451.49,17.64 7425.03,17.64 7398.58,17.64 7372.12,17.64 7345.67,17.64 7319.21,17.64 7292.76,17.64 7266.3,17.64 7239.85,17.64 7213.39,17.64 7186.94,17.64 7160.48,17.64 7134.03,17.64 7107.57,17.64 7081.12,17.64 7054.66,17.64 7028.21,17.64 7001.75,17.64 6975.3,17.64 6948.84,17.64 6922.39,17.64 6895.93,17.64 6869.48,17.64 6843.02,17.64 6816.57,17.64 6790.11,17.64 6763.66,17.64 6737.2,17.64 6710.75,17.64 6684.29,17.64 6657.84,17.64 6631.38,17.64 6604.93,17.64 6578.47,17.64 6552.02,17.64 6525.56,17.64 6499.11,17.64 6472.65,17.64 6446.2,17.64 6419.74,17.64 6393.29,17.64 6366.83,17.64 6340.38,17.64 6313.92,17.64 6287.47,17.64 6261.01,17.64 6234.56,17.64 6208.1,17.64 6181.65,17.64 6155.19,17.64 6128.74,17.64 6102.28,17.64 6075.83,17.64 6049.37,17.64 6022.92,17.64 5996.46,17.64 5970.01,17.64 5943.55,17.64 5917.1,17.64 5890.64,17.64 5864.19,17.64 5837.73,17.64 5811.28,17.64 5784.82,17.64 5758.37,17.64 5731.91,17.64 5705.46,17.64 5679,17.64 5652.55,17.64 5626.09,17.64 5599.64,17.64 5573.18,17.64 5546.73,17.64 5520.27,17.64 5493.82,17.64 5467.36,17.64 5440.91,17.64 5414.45,17.64 5388,17.64 5361.54,17.64 5335.09,17.64 5308.63,17.64 5282.18,17.64 5255.72,17.64 5229.27,17.64 5202.81,17.64 5176.36,17.64 5149.9,17.64 5123.45,17.64 5096.99,17.64 5070.54,17.64 5044.08,17.64 5017.63,17.64 4991.17,17.64 4964.72,17.64 4938.26,17.64 4911.81,17.64 4885.35,17.64 4858.9,17.64 4832.44,17.64 4805.99,17.64 4779.53,17.64 4753.08,17.64 4726.62,17.64 4700.17,17.64 4673.72,17.64 4647.26,17.64 4620.81,17.64 4594.35,17.64 4567.9,17.64 4541.44,17.64 4514.99,17.64 4488.53,17.64 4462.08,17.64 4435.62,17.64 4409.17,17.64 4382.71,17.64 4356.26,17.64 4329.8,17.64 4303.35,17.64 4276.89,17.64 4250.44,17.64 4223.98,17.64 4197.53,17.64 4171.07,17.64 4144.62,17.64 4118.16,17.64 4091.71,17.64 4065.25,17.64 4038.8,17.64 4012.34,17.64 3985.89,17.64 3959.43,17.64 3932.98,17.64 3906.52,17.64 3880.07,17.64 3853.61,17.64 3827.16,17.64 3800.7,17.64 3774.25,17.64 3747.79,17.64 3721.34,17.64 3694.88,17.64 3668.43,17.64 3641.97,17.64 3615.52,17.64 3589.06,17.64 3562.61,17.64 3536.15,17.64 3509.7,17.64 3483.24,17.64 3456.79,17.64 3430.33,17.64 3403.88,17.64 3377.42,17.64 3350.97,17.64 3324.51,17.64 3298.06,17.64 3271.6,17.64 3245.15,17.64 3218.69,17.64 3192.24,17.64 3165.78,17.64 3139.33,17.64 3112.87,17.64 3086.42,17.64 3059.96,17.64 3033.51,17.64 3007.05,17.64 2980.6,17.64 2954.14,17.64 2927.69,17.64 2901.23,17.64 2874.78,17.64 2848.32,17.64 2821.87,17.64 2795.41,17.64 2768.96,17.64 2742.5,17.64 2716.05,17.64 2689.59,17.64 2663.14,17.64 2636.68,17.64 2610.23,17.64 2583.77,17.64 2557.32,17.64 2530.86,17.64 2504.41,17.64 2477.95,17.64 2451.5,17.64 2425.04,17.64 2398.59,17.64 2372.13,17.64 2345.68,17.64 2319.22,17.64 2292.77,17.64 2266.31,17.64 2239.86,17.64 2213.4,17.64 2186.95,17.64 2160.49,17.64 2134.04,17.64 2107.58,17.64 2081.13,17.64 2054.67,17.64 2028.22,17.64 2001.76,17.64 1975.31,17.64 1948.85,17.64 1922.4,17.64 1895.94,17.64 1869.49,17.64 1843.03,17.64 1816.58,17.64 1790.12,17.64 1763.67,17.64 1737.21,17.64 1710.76,17.64 1684.3,17.64 1657.85,17.64 1631.39,17.64 1604.94,17.64 1578.48,17.64 1552.03,17.64 1525.57,17.64 1499.12,17.64 1472.66,17.64 1446.21,17.64 1419.75,17.64 1393.3,17.64 1366.84,17.64 1340.39,17.64 1313.93,17.64 1287.48,17.64 1261.02,17.64 1234.57,17.64 1208.11,17.64 1181.66,17.64 1155.2,17.64 1128.75,17.64 1102.29,17.64 1075.84,17.64 1049.38,17.64 1022.93,17.64 996.47,17.64 970.02,17.64 943.56,17.64 917.11,17.64 890.65,17.64 864.2,17.64 837.74,17.64 811.29,17.64 784.83,17.64 758.38,17.64 731.92,17.64 705.47,17.64 679.01,17.64 652.56,17.64 626.1,17.64 599.65,17.64 573.19,17.64 546.74,17.64 520.28,17.64 493.83,17.64 467.37,17.64 440.92,17.64 414.46,17.64 388.01,17.64 361.55,17.64 335.1,17.64 308.64,17.64 282.19,17.64 255.73,17.64 229.28,17.64 202.82,17.64 176.37,17.64 149.91,17.64 123.46,17.64 97,17.64 70.55,17.64 "/>
   <polygon class="fil0 str0" points="6816.57,546.74 6790.11,573.19 6790.11,599.65 6790.11,626.1 6790.11,652.56 6790.11,679.01 6790.11,705.47 6790.11,731.92 6790.11,758.38 6790.11,784.83 6790.11,811.29 6790.11,837.74 6790.11,864.2 6790.11,890.65 6790.11,917.11 6790.11,943.56 6790.11,970.02 6790.11,996.47 6790.11,1022.93 6790.11,1049.38 6790.11,1075.84 6816.57,1102.29 6843.02,1102.29 6869.48,1102.29 6895.93,1102.29 6922.39,1102.29 6948.84,1102.29 6975.3,1102.29 7001.75,1102.29 7028.21,1102.29 7054.66,1102.29 7081.12,1102.29 7107.57,1102.29 7134.03,1102.29 7160.48,1102.29 7186.94,1102.29 7213.39,1102.29 7239.85,1102.29 7266.3,1102.29 7292.76,1102.29 7319.21,1102.29 7345.67,1102.29 7372.12,1102.29 7398.58,1102.29 7425.03,1102.29 7451.49,1102.29 7477.94,1102.29 7504.4,1102.29 7530.85,1102.29 7557.31,1102.29 7583.76,1102.29 7610.22,1102.29 7636.67,1102.29 7663.13,1102.29 7689.58,1102.29 7716.04,1102.29 7742.49,1102.29 7768.95,1102.29 7795.4,1102.29 7821.86,1102.29 7848.31,1102.29 7874.77,1075.84 7874.77,1049.38 7874.77,1022.93 7874.77,996.47 7874.77,970.02 7874.77,943.56 7874.77,917.11 7874.77,890.65 7874.77,864.2 7874.77,837.74 7874.77,811.29 7874.77,784.83 7874.77,758.38 7874.77,731.92 7874.77,705.47 7874.77,679.01 7874.77,652.56 7874.77,626.1 7874.77,599.65 7874.77,573.19 7848.31,546.74 7821.86,546.74 7795.4,546.74 7768.95,546.74 7742.49,546.74 7716.04,546.74 7689.58,546.74 7663.13,546.74 7636.67,546.74 7610.22,546.74 7583.76,546.74 7557.31,546.74 7530.85,546.74 7504.4,546.74 7477.94,546.74 7451.49,546.74 7425.03,546.74 7398.58,546.74 7372.12,546.74 7345.67,546.74 7319.21,546.74 7292.76,546.74 7266.3,546.74 7239.85,546.74 7213.39,546.74 7186.94,546.74 7160.48,546.74 7134.03,546.74 7107.57,546.74 7081.12,546.74 7054.66,546.74 7028.21,546.74 7001.75,546.74 6975.3,546.74 6948.84,546.74 6922.39,546.74 6895.93,546.74 6869.48,546.74 6843.02,546.74 "/>
   <polygon class="fil0 str0" points="1128.75,546.74 1102.29,573.19 1102.29,599.65 1102.29,626.1 1102.29,652.56 1102.29,679.01 1102.29,705.47 1102.29,731.92 1102.29,758.38 1102.29,784.83 1102.29,811.29 1102.29,837.74 1102.29,864.2 1102.29,890.65 1102.29,917.11 1102.29,943.56 1102.29,970.02 1102.29,996.47 1102.29,1022.93 1102.29,1049.38 1102.29,1075.84 1128.75,1102.29 1155.2,1102.29 1181.66,1102.29 1208.11,1102.29 1234.57,1102.29 1261.02,1102.29 1287.48,1102.29 1313.93,1102.29 1340.39,1102.29 1366.84,1102.29 1393.3,1102.29 1419.75,1102.29 1446.21,1102.29 1472.66,1102.29 1499.12,1102.29 1525.57,1102.29 1552.03,1102.29 1578.48,1102.29 1604.94,1102.29 1631.39,1102.29 1657.85,1102.29 1684.3,1102.29 1710.76,1102.29 1737.21,1102.29 1763.67,1102.29 1790.12,1102.29 1816.58,1102.29 1843.03,1102.29 1869.49,1102.29 1895.94,1102.29 1922.4,1102.29 1948.85,1102.29 1975.31,1102.29 2001.76,1102.29 2028.22,1102.29 2054.67,1102.29 2081.13,1102.29 2107.58,1102.29 2134.04,1102.29 2160.49,1075.84 2160.49,1049.38 2160.49,1022.93 2160.49,996.47 2160.49,970.02 2160.49,943.56 2160.49,917.11 2160.49,890.65 2160.49,864.2 2160.49,837.74 2160.49,811.29 2160.49,784.83 2160.49,758.38 2160.49,731.92 2160.49,705.47 2160.49,679.01 2160.49,652.56 2160.49,626.1 2160.49,599.65 2160.49,573.19 2134.04,546.74 2107.58,546.74 2081.13,546.74 2054.67,546.74 2028.22,546.74 2001.76,546.74 1975.31,546.74 1948.85,546.74 1922.4,546.74 1895.94,546.74 1869.49,546.74 1843.03,546.74 1816.58,546.74 1790.12,546.74 1763.67,546.74 1737.21,546.74 1710.76,546.74 1684.3,546.74 1657.85,546.74 1631.39,546.74 1604.94,546.74 1578.48,546.74 1552.03,546.74 1525.57,546.74 1499.12,546.74 1472.66,546.74 1446.21,546.74 1419.75,546.74 1393.3,546.74 1366.84,546.74 1340.39,546.74 1313.93,546.74 1287.48,546.74 1261.02,546.74 1234.57,546.74 1208.11,546.74 1181.66,546.74 1155.2,546.74 "/>
   <polygon class="fil0 str0" points="3985.89,546.74 3959.43,573.19 3959.43,599.65 3959.43,626.1 3959.43,652.56 3959.43,679.01 3959.43,705.47 3959.43,731.92 3959.43,758.38 3959.43,784.83 3959.43,811.29 3959.43,837.74 3959.43,864.2 3959.43,890.65 3959.43,917.11 3959.43,943.56 3959.43,970.02 3959.43,996.47 3959.43,1022.93 3959.43,1049.38 3959.43,1075.84 3985.89,1102.29 4012.34,1102.29 4038.8,1102.29 4065.25,1102.29 4091.71,1102.29 4118.16,1102.29 4144.62,1102.29 4171.07,1102.29 4197.53,1102.29 4223.98,1102.29 4250.44,1102.29 4276.89,1102.29 4303.35,1102.29 4329.8,1102.29 4356.26,1102.29 4382.71,1102.29 4409.17,1102.29 4435.62,1102.29 4462.08,1102.29 4488.53,1102.29 4514.99,1102.29 4541.44,1102.29 4567.9,1102.29 4594.35,1102.29 4620.81,1102.29 4647.26,1102.29 4673.72,1102.29 4700.17,1102.29 4726.62,1102.29 4753.08,1102.29 4779.53,1102.29 4805.99,1102.29 4832.44,1102.29 4858.9,1102.29 4885.35,1102.29 4911.81,1102.29 4938.26,1102.29 4964.72,1102.29 4991.17,1102.29 5017.63,1075.84 5017.63,1049.38 5017.63,1022.93 5017.63,996.47 5017.63,970.02 5017.63,943.56 5017.63,917.11 5017.63,890.65 5017.63,864.2 5017.63,837.74 5017.63,811.29 5017.63,784.83 5017.63,758.38 5017.63,731.92 5017.63,705.47 5017.63,679.01 5017.63,652.56 5017.63,626.1 5017.63,599.65 5017.63,573.19 4991.17,546.74 4964.72,546.74 4938.26,546.74 4911.81,546.74 4885.35,546.74 4858.9,546.74 4832.44,546.74 4805.99,546.74 4779.53,546.74 4753.08,546.74 4726.62,546.74 4700.17,546.74 4673.72,546.74 4647.26,546.74 4620.81,546.74 4594.35,546.74 4567.9,546.74 4541.44,546.74 4514.99,546.74 4488.53,546.74 4462.08,546.74 4435.62,546.74 4409.17,546.74 4382.71,546.74 4356.26,546.74 4329.8,546.74 4303.35,546.74 4276.89,546.74 4250.44,546.74 4223.98,546.74 4197.53,546.74 4171.07,546.74 4144.62,546.74 4118.16,546.74 4091.71,546.74 4065.25,546.74 4038.8,546.74 4012.34,546.74 "/>
  </g>
 </g>
</svg>
